<?xml version="1.0" encoding="UTF-8"?>
<svg id="Layer_1" data-name="Layer 1" xmlns="http://www.w3.org/2000/svg" viewBox="0 0 792 612">
  <defs>
    <style>
      .cls-1 {
        fill: #aac8c7;
      }

      .cls-2 {
        fill: #f5f5f9;
      }

      .cls-3 {
        fill: #575052;
      }

      .cls-4 {
        fill: #7fd9dd;
      }

      .cls-5 {
        fill: #a9b6b8;
      }

      .cls-6 {
        fill: #8f9ea2;
      }

      .cls-7 {
        fill: #030204;
      }

      .cls-8 {
        fill: #c4edfc;
      }

      .cls-9 {
        fill: #4a4b4b;
      }

      .cls-10 {
        fill: #747575;
      }

      .cls-11 {
        fill: #ceebed;
      }

      .cls-12 {
        fill: #cdeffc;
      }

      .cls-13 {
        fill: #71b9e5;
      }

      .cls-14 {
        fill: #cee4e8;
      }

      .cls-15 {
        fill: #cdcacf;
      }

      .cls-16 {
        fill: #b9f2f8;
      }

      .cls-17 {
        fill: #c5e8f8;
      }

      .cls-18 {
        fill: #fbfcfd;
      }

      .cls-19 {
        fill: #d9eef9;
      }

      .cls-20 {
        fill: #578a8b;
      }

      .cls-21 {
        fill: #b1b6b3;
      }

      .cls-22 {
        fill: #1e3a38;
      }

      .cls-23 {
        fill: #799db5;
      }

      .cls-24 {
        fill: #d0e6f6;
      }

      .cls-25 {
        fill: #f2f3f8;
      }

      .cls-26 {
        fill: #26545c;
      }

      .cls-27 {
        fill: #7bc5eb;
      }

      .cls-28 {
        fill: #d7d6d6;
      }

      .cls-29 {
        fill: #a4d8f3;
      }

      .cls-30 {
        fill: #5a555c;
      }

      .cls-31 {
        fill: #b8cdcf;
      }

      .cls-32 {
        fill: #8ac8e9;
      }

      .cls-33 {
        fill: #54656b;
      }

      .cls-34 {
        fill: #8d8a8c;
      }

      .cls-35 {
        fill: #5e6b68;
      }

      .cls-36 {
        fill: #a6dbf7;
      }

      .cls-37 {
        fill: #4e6067;
      }

      .cls-38 {
        fill: #979b93;
      }

      .cls-39 {
        fill: #b3dcf5;
      }

      .cls-40 {
        fill: #576065;
      }

      .cls-41 {
        fill: #9abcbd;
      }

      .cls-42 {
        fill: #bae3f6;
      }

      .cls-43 {
        fill: #212829;
      }

      .cls-44 {
        fill: #7e97a7;
      }

      .cls-45 {
        fill: #e3f5fc;
      }

      .cls-46 {
        fill: #bcd2d4;
      }

      .cls-47 {
        fill: #aadcf5;
      }

      .cls-48 {
        fill: #0b080b;
      }

      .cls-49 {
        fill: #c1e0de;
      }

      .cls-50 {
        fill: #8a9190;
      }

      .cls-51 {
        fill: #90cbea;
      }

      .cls-52 {
        fill: #c9e4e5;
      }

      .cls-53 {
        fill: #aebbbd;
      }

      .cls-54 {
        fill: #b0e2f8;
      }

      .cls-55 {
        fill: #b6e1f6;
      }

      .cls-56 {
        fill: #72afb1;
      }

      .cls-57 {
        fill: #87caee;
      }

      .cls-58 {
        fill: #b1e1f9;
      }

      .cls-59 {
        fill: #d1f0fc;
      }

      .cls-60 {
        fill: #76777e;
      }

      .cls-61 {
        fill: #bec0c4;
      }

      .cls-62 {
        fill: #9fb6b3;
      }

      .cls-63 {
        fill: #7c8f90;
      }

      .cls-64 {
        fill: #0d0b10;
      }

      .cls-65 {
        fill: #d3f2fb;
      }

      .cls-66 {
        fill: #c59294;
      }

      .cls-67 {
        fill: #88cdf0;
      }

      .cls-68 {
        fill: #b0e0f8;
      }

      .cls-69 {
        fill: #465f6d;
      }

      .cls-70 {
        fill: #9bd9f7;
      }

      .cls-71 {
        fill: #fcfefe;
      }

      .cls-72 {
        fill: #384143;
      }

      .cls-73 {
        fill: #86c9ee;
      }

      .cls-74 {
        fill: #739b9c;
      }

      .cls-75 {
        fill: #558a91;
      }

      .cls-76 {
        fill: #3d474b;
      }

      .cls-77 {
        fill: #a7daf4;
      }

      .cls-78 {
        fill: #6d9ba1;
      }

      .cls-79 {
        fill: #83c4e9;
      }

      .cls-80 {
        fill: #c1e7fa;
      }

      .cls-81 {
        fill: #9ca2a2;
      }

      .cls-82 {
        fill: #c0e7f9;
      }

      .cls-83 {
        fill: #1f252c;
      }

      .cls-84 {
        fill: #acced3;
      }

      .cls-85 {
        fill: #266262;
      }

      .cls-86 {
        fill: #dceffa;
      }

      .cls-87 {
        fill: #bae5f8;
      }

      .cls-88 {
        fill: #ade0f6;
      }

      .cls-89 {
        fill: #a4aaad;
      }

      .cls-90 {
        fill: #7cbbe2;
      }

      .cls-91 {
        fill: #a3cbd5;
      }

      .cls-92 {
        fill: #93d1f1;
      }

      .cls-93 {
        fill: #8accec;
      }

      .cls-94 {
        fill: #c9c4c7;
      }

      .cls-95 {
        fill: #71a0a5;
      }

      .cls-96 {
        fill: #c4e1f1;
      }

      .cls-97 {
        fill: #d1f0fa;
      }

      .cls-98 {
        fill: #83d9e0;
      }

      .cls-99 {
        fill: #acbdbc;
      }

      .cls-100 {
        fill: #ecf7fc;
      }

      .cls-101 {
        fill: #c1beca;
      }

      .cls-102 {
        fill: #dbf3fc;
      }

      .cls-103 {
        fill: #132425;
      }

      .cls-104 {
        fill: #77bddf;
      }

      .cls-105 {
        fill: #f6f9fc;
      }

      .cls-106 {
        fill: #ddedf3;
      }

      .cls-107 {
        fill: #f0f1f1;
      }

      .cls-108 {
        fill: #9fb8c0;
      }

      .cls-109 {
        fill: #9cd4f1;
      }

      .cls-110 {
        fill: #345857;
      }

      .cls-111 {
        fill: #848997;
      }

      .cls-112 {
        fill: #b9e1f6;
      }

      .cls-113 {
        fill: #537e82;
      }

      .cls-114 {
        fill: #59a7ab;
      }

      .cls-115 {
        fill: #020102;
      }

      .cls-116 {
        fill: #beeaf9;
      }

      .cls-117 {
        fill: #afe1f9;
      }

      .cls-118 {
        fill: #a3adb2;
      }

      .cls-119 {
        fill: #686867;
      }

      .cls-120 {
        fill: #97cbd3;
      }

      .cls-121 {
        fill: #668986;
      }

      .cls-122 {
        fill: #daf3fc;
      }

      .cls-123 {
        fill: #a3d5f1;
      }

      .cls-124 {
        fill: #99d6f5;
      }

      .cls-125 {
        fill: #6cbfe7;
      }

      .cls-126 {
        fill: #121115;
      }

      .cls-127 {
        fill: #272426;
      }

      .cls-128 {
        fill: #cccbc9;
      }

      .cls-129 {
        fill: #596671;
      }

      .cls-130 {
        fill: #4c5b63;
      }

      .cls-131 {
        fill: #98d5f4;
      }

      .cls-132 {
        fill: #addef7;
      }

      .cls-133 {
        fill: #8ca4bd;
      }

      .cls-134 {
        fill: #91d0f1;
      }

      .cls-135 {
        fill: #000001;
      }

      .cls-136 {
        fill: #d2cecc;
      }

      .cls-137 {
        fill: #3c4145;
      }

      .cls-138 {
        fill: #464e52;
      }

      .cls-139 {
        fill: #687268;
      }

      .cls-140 {
        fill: #a1d7f4;
      }

      .cls-141 {
        fill: #cadbdf;
      }

      .cls-142 {
        fill: #e1f1f7;
      }

      .cls-143 {
        fill: #5b2929;
      }

      .cls-144 {
        fill: #d5d6df;
      }

      .cls-145 {
        fill: #dde2e5;
      }

      .cls-146 {
        fill: #89a7b0;
      }

      .cls-147 {
        fill: #bde8fa;
      }

      .cls-148 {
        fill: #e2eaee;
      }

      .cls-149 {
        fill: #928e92;
      }

      .cls-150 {
        fill: #eceef2;
      }

      .cls-151 {
        fill: #0c0c10;
      }

      .cls-152 {
        fill: #a8daf5;
      }

      .cls-153 {
        fill: #be9190;
      }

      .cls-154 {
        fill: #9dd6f4;
      }

      .cls-155 {
        fill: #898e8c;
      }

      .cls-156 {
        fill: #bfe9fb;
      }

      .cls-157 {
        fill: #fcfdfe;
      }

      .cls-158 {
        fill: #223939;
      }

      .cls-159 {
        fill: #92cfef;
      }

      .cls-160 {
        fill: #9f8f8d;
      }

      .cls-161 {
        fill: #f9fafb;
      }
    </style>
  </defs>
  <path class="cls-135" d="m36.74,306.43c1.41-12.89,6.91-22.39,11.8-32.7,4.78-10.09,10.97-14.1,18.71-16.82,15.89-5.58,32.08-8.47,48.13-12.47,5.67-1.41,11.36-2.33,16.9-4.79,6.94-3.09,14.05-4.16,21.32-4.05,21.12.3,42.24-.01,63.35.5,8.61.21,17.27,1.3,25.79,3.1,18.95,4,38.22,3.85,57.01,10.44,7.86,2.75,16.04-1.24,23.94-3.66,7.03-2.16,13.99-4.81,21.01-7.05,10.39-3.31,21-1.22,31.48-2.61,10.98-1.46,22-2.11,32.99-3.79,12.36-1.88,24.91-1.14,37.38-1.55,3.45-.12,6.47,1.91,9.66,3.47,4.79,2.33,7.07,9.39,11.63,11.85,2.45-6.4,6.79-6.59,11.02-7.36,12.83-2.34,25.8-2.91,38.45-7.69,4.56-1.72,9.56-1.46,14.34-1.2,16.34.88,32.58-1.27,48.81-3.35,20.62-2.64,41.24,1.49,61.85-.21,3.35-.27,6.73.15,10.07-.17,14.56-1.38,28.57,2.46,42.44,8.58,16.76,7.4,29.91,21.69,39.06,43.51,14.36,34.22,14.15,29.25,8.78,68.8-2.7,19.89-5.7,39.99-10.6,58.86-4.12,15.86-7.03,31.91-9.62,48.28-2.71,17.16-7.67,33.17-12.29,49.31-3.4,11.85-8.5,21.98-15.48,29.93-6.46,7.36-12.07,15.82-16.8,25.72-5.65,11.85-13.41,19.91-22.83,24.41-3.19,1.52-6.36,3.18-9.6,4.4-14.34,5.42-28.57,11.56-42.91,16.76-21.83,7.91-43.66,4.34-64.81-7.48-18.94-10.59-36.37-24.79-52.18-43.53-11.45-13.57-20.54-29.38-25.52-49.88-5.63-23.19-12.98-45.27-20.23-67.42-7.24-22.11-14.83-44.09-16.9-68.95-.63-7.6-3.54-12.85-7.96-16.59-12.62-10.7-26.27-13.23-40.16-8.54-4.78,1.61-8.76,8.2-13.17,12.35-6.33,5.95-9.64,13.47-11.09,25.19-3.77,30.5-11.74,59.2-21.32,86.84-6.07,17.52-12.43,34.83-18.53,52.33-5.56,15.95-15.06,27.15-22.7,40.57-1.7,2.98-5.1,3.76-7.53,5.98-4.06,3.71-9.02,6.59-11.74,11.89-7.6,14.83-18.59,19.59-29.76,23.32-24.09,8.05-48.56,6.76-72.99,4.19-9.71-1.02-18.36-7.21-27.18-12.74-10.1-6.33-20.07-13.07-31.22-15.31-7.7-1.55-14.49-7.3-20.08-15.48-14.08-20.59-25.44-43.49-31.35-72.02-6.98-33.65-13.09-67.6-18.51-101.84-.64-4.05-.54-8.36-.78-12.55-4.67-22.91-6.82-45.82-.1-68.76Z"/>
  <path class="cls-115" d="m757.17,273.56c-.61-9.02-1.62-18.03-1.71-27.06-.08-8.34-2.4-15.3-5.63-21.19-12.34-22.49-22.84-46.75-33.37-71.05-5.38-12.41-11.61-24.27-18.45-35.01-13.45-21.11-24.96-44.5-37.74-66.38-4.04-6.91-8.01-13.94-12.37-20.4-2.61-3.87-5.56-6.79-9.53-8.63-9.4-4.36-16.85-1.4-23.5,8.6-1.67,2.5-3.47,4.88-5.4,6.93-2.18,2.32-3.23,4.98-2.33,8.89,1.69,7.33-.03,13.53-2.53,19.88-4.78,12.15-8.94,24.9-15.1,35.73-4.46,7.85-11.25,8.74-16.66,2.96-2.49-2.67-3.78-6.3-3.29-10.94.42-3.96,2.43-5.95,4.69-7.22,1.3-.73,2.85-.46,4.22-1.02,2.26-.93,3.4-4.14,1.61-5.98-5.09-5.23-3.15-10.64-.96-16.29,4.3-11.07,9.44-21.16,15.89-29.81,6.01-8.06,11.78-16.5,17.82-24.52,4.52-5.99,9.83-8.37,15.96-6.29,3.26,1.11,6.59,1.69,9.88,2.62,12.59,3.57,23.46,11.21,31.82,26.25,15.74,28.33,31.84,56.23,47.78,84.32,1.53,2.7,3.07,5.42,4.46,8.28,15.84,32.6,31.75,65.13,47.41,97.92,3.27,6.85,5.95,14.45,8.29,22.1,2.3,7.52,1.41,10.73-3.21,16.36-1.46,1.78-3.2,3.04-4.7,4.76-3.9,4.46-3.97,4.59-1.7,13.81,2.05,8.32,2.93,17.08,4.91,25.53,3.1,13.22,2.33,27.83-3.2,40.61-1.75,4.05-3.73,4.52-6.05-.12-1.95-3.89-3.54-2.87-5.99-2.1-3.41,1.07-5.72-2.09-5.18-6.5.51-4.13,1.26-8.23,2.2-12.19,2.37-10.02,1.68-19.29-2.57-28-1.39-2.84-2.66-5.87-3.67-9.03-2.5-7.86-1.13-11.42,5.5-14.87.89-.46,1.79-.92,2.68-1.38l-.3.43Z"/>
  <path class="cls-7" d="m16.53,294.66c-1.53-7.71,2-13.66,4.32-18.9,7.1-16.03,11.78-33.78,17.93-50.45,3.43-9.3,7.08-18.3,11.31-26.89,7.85-15.97,15.12-32.56,23.07-48.41,10.51-20.95,21.87-41,32.08-62.25,7.75-16.12,15.58-32.01,24.82-46.35.99-1.53,1.86-3.23,2.85-4.76,17.09-26.2,30.46-26.13,51.98-3.96,9.36,9.64,16.73,22.74,22.16,37.82,1.98,6.28,2.92,12.12-2.99,15.01-6.26.67-9.5-6.2-13.35-11.54-1.09-.93-2.26-1.59-3.52-1.92-1.62-1.39-2.95-3.3-4.14-5.4-.64-1.5-1.32-2.97-2.05-4.39-2.36-4.15-5.56-6.68-8.62-9.52-1.34-1.47-2.61-3.03-4-4.1.09.07-.54-1.26-.54-1.26,0,0,.18,1.59.27,1.61,1.33,1.04,2.43,2.33,3.56,3.66,3.27,3.47,7.21,5.58,9.52,10.78.93,2.19,1.88,4.36,3.17,6.16,1.61,2.85,4.22,2.86,6.19,4.7,2.72,3.64,4.82,8.12,7.47,11.87,8.99,16.08,9.41-7.13,14.9-6.97,2.3,2.45,4.87,4.5,6.83,7.44,2.84,4.26,3.31,9.4,2.51,15.54-1.31,10-5.5,17.81-8.29,26.65-1.18,3.74-4.95,4.69-7.57,2.65-1.25-.98-2.59-1.98-3.56-3.43-9.01-13.39-19.59-24.73-25.59-42.07-.65-1.86-1.38-3.79-2.36-5.25-6.03-8.89-12-17.89-18.28-26.4-4.83-6.55-6.86-6.17-12.8-1.63-7.95,6.08-13.64,15.99-18.32,26.25-13.58,29.8-29.88,56.51-43.97,85.61-12.44,25.68-27.04,49.58-35.62,78.8-5.34,18.2-13.19,33.88-19.87,50.72-3.06,4.05-6.26,2.9-9.5.58Z"/>
  <path class="cls-126" d="m16.53,294.66c3.17-.19,6.33-.38,9.5-.58,8.64.77,8.7.87,8.23,12.96-5.9,19.25-3.4,39.59-3.59,59.58-.26,8.1-1.38,9.48-4.76,7.69-14.34-7.62-20.13-54.09-7.05-68.54,1.16-1.28,3.94-2.42,2.58-5.59-.79-1.84-3.03-2.29-4.55-3.54-.28-.23-.24-1.29-.35-1.96Z"/>
  <path class="cls-148" d="m30.67,366.62c-2.73-7.91-6.33-25.5-5.84-30.75.44-4.71.18-9.68,2.39-13.91,2.51-4.78,4.7-9.93,7.03-14.91l-.34-.1c2.57,19.76,2.64,39.51-.04,59.25-1.07.14-2.14.28-3.21.41Z"/>
  <path class="cls-94" d="m201.4,82.79q5.82-1.55,5.66-12.29c1.96,2.9,3.93,5.8,5.89,8.7-2.21,2.62-4.43,5.3-3.71,10.15.52,3.5.36,6.68-1.02,9.77-1.18,2.64-2.69,4.2-4.41,1.8-3-4.18-5.68-8.83-8.5-13.29-.36-8.09,2.75-6.75,6.09-4.83Z"/>
  <path class="cls-126" d="m33.88,366.2c.01-19.75.03-39.5.04-59.25.97.16,1.91-.01,2.82-.52.03,22.92.07,45.84.1,68.76-.99-3-1.97-5.99-2.96-8.99Z"/>
  <polygon class="cls-160" points="543.12 186.78 542.36 187.14 542.47 186.11 543.12 186.78"/>
  <path class="cls-157" d="m687.96,463.1c-3.72,4.8-2.82,13.01-6.2,18.07-7.06-1.28-13.9,1.17-18.45,8.6-13.54,22.12-30.22,41.83-30.56,75.54-1.33,5.18-4.84,8.14-7.64,8.31-17.27.99-33.88,9.98-51.27,8.85-2.82-.18-5.77-1.35-7.11-5.67-2.16-7.03,2.33-9.57,4.5-13.66.76-1.44,1.58-2.84,2.33-4.28.97-2.32,1.79-4.75,2.5-7.27,3.2-10.35,7.64-19.47,12.83-27.85,16.8-29.96,30.72-63.16,48.27-92.27,11.99-21.63,23.42-43.87,33.5-67.52,6.35-14.9,14.07-27.98,22.8-39.87.88-1.37,1.85-2.63,2.84-3.85.95-1.26,1.97-2.41,3-3.54,2.04-2.4,3.81-5.24,5.79-7.78,1.18-1.18,2.46-1.96,3.86-2.35,7.29,12.2,4,25.91,1.33,38.29-2.75,12.72-4.5,25.4-5.22,38.55-2.2,8.14-3.65,16.64-5.7,24.85v.09c-2.26,3.55.09,9.36-2.86,12.58v.11c-2.74,8.05-3.34,17.14-5.75,25.34l.03-.05c-2.85,4.9.49,12.06-2.84,16.78Z"/>
  <path class="cls-28" d="m426.71,333.79c-12.45-15.28-25.44-20.49-39.84-19.79-10.9.53-20.6,5.34-29.28,14.9-2.29,2.52-4.66,4.91-7.08,7.15-1.44,1.33-3.04.35-3.7-1.43-4.13-11.03-8.93-21.75-11.89-33.45-3.42-13.52-8.09-25.28-15.09-35.23-.6-.86-.67-2.52-1-3.91,3.93-2.64,8.01-4.47,12.37-4.47,9.5,0,19.14-1.43,28.45.51,8.2,1.7,16.28,1.11,24.22.19,21.96-2.55,43.96-1.96,65.92-3.43,1.43-.1,2.87-.12,4.3,0,3.78.34,5.33,3.95,3.54,8.32-1.23,3-2.63,5.87-4.04,8.71-7.89,15.86-15.66,31.83-21.53,49.6-1.23,3.72-3.02,7.03-5.35,12.33Z"/>
  <path class="cls-18" d="m241.9,561.02c-6.11,4.26-12.22,8.52-18.34,12.78.45,9.08,5.3,4.86,8.39,5.99,2.68.98,7.1-2.52,6.98,5.76-11.4,8.21-23.75,9.09-36.07,9.61-9.02.38-18.06-.19-27.09-.43-6.74-.18-13.2-2.86-19.33-6.41-5.69-3.29-10.89-8.38-16.31-12.68-2.7-12.09.69-19.21,8.75-15.44,6.47,3.03,15.5-5.57,19.81,9.63,1.44,5.08,5.94.07,8.81-2.07,10.34-7.76,18.94-18.69,26.45-31.57,9.94-16.31,21.44-30.87,26.99-52.09,4.51-10.35,9.99-19.68,14.54-30,3.69-6.71,6.1-15.2,12.09-18.73,2.04-.87,4.09-.92,6.16-.31,1.37.51,2.68,1.27,3.93,2.24,7.99,6.58,9.96,16.66,7.83,29.11-5.93,19.09-16.46,33.64-23.74,51.39-1.1,1.8-2.37,3.38-3.67,4.85-.73.95-1.39,2.04-1.93,3.24.83.63.98-.85,1.52-1.07.87-.67,1.78-1.17,2.71-1.56.9-.47,1.81-.91,2.71-1.41.85-.67,1.68-1.36,2.47-2.18.74-.99,1.49-1.94,2.22-2.95.36-.57.73-1.07,1.09-1.64.73-1.21,1.5-2.31,2.31-3.42.43-.57.87-1.07,1.32-1.63.98-1.06,2.05-1.79,3.22-2.27,1.29-.17,2.51.12,3.7.84,5.74,9.15,1.09,16.32-3.09,21.2-8.48,9.9-15.49,22.18-24.44,31.22Z"/>
  <path class="cls-105" d="m509.83,553c-1.34-.97-2.67-1.94-4.01-2.91l-1.06-1.35c-8.12-6.48-13.66-17.08-19.31-27.2-3.8-6.81-5.84-15.07-12.33-18.93-4.72-2.81-4.2-11.84-4.79-18.63-.12-1.35,1.35-3.61,2.44-4.49,7.73-6.18,9.7-16.34,9.43-28.18-.87-2.64-.84-5.69-1.75-8.31-.55-3.03-1.1-6.07-1.65-9.1,3.23-5.25,8.23-1.29,11.76-4.96,7.44-7.44,13.81-16.42,18.86-27.36,9.42-25.72,22.94-46.83,35.86-68.61,5.03-13,12.32-22.98,20.06-32.38,8.42-4.81,12.95-12.62,9.6-26.57-.01-2.82.34-5.53,1.23-8.05,1.1-2.26,2.71-3.01,4.5-3.13,1.95-.43,3.7,2.98,5.78.67,1.01-.42,2.01-.39,3.01.08,2.18,1.75,4.1-1.33,6.25-.72,1.92.2,3.69,1.27,5.56,1.84,10.16,6.3,21.39-2.6,31.45,4.86,1.33,8.2-2.66,10.91-6.55,13.72-7.15-.7-13.38,2.87-19.01,9.11-4.99,2.88-10.68,3.64-14.44,10.29-.85,1.32-1.75,2.53-2.66,3.75-1.81,2.53-3.62,5.06-5.46,7.55-1.42,1.96-2.95,3.71-4.54,5.38-18.8,23.17-30.17,55.25-45.72,82.32-6.37,11.1-12.44,22.89-17.12,35.91-6.18,13.67-7.88,29.61-10.62,45.02-4.83,16.37-4.55,31.85,2.34,47.32,2.9,6.52,6.57,14.16,2.88,23.05Z"/>
  <path class="cls-71" d="m86.36,491.58c.54-1.14.4-2.04-.44-2.7-1.65-2.66-1.49-6.21-2.12-9.37l-.62.73.68-.61c-2.78-1.5-2.16-5.57-3-8.53-3.01-.98-1.68-5.8-3.3-8.01l.07.15c-2.07-2.04-1.55-6.01-2.98-8.53l.05.15c-3.38-4.97-.31-12.09-2.69-17.4l.09.3c-3.5-4.09-1.16-10.01-2.17-14.87-2.34-7.74-1.65-16.3-3.03-24.31-.29-2.02-.38-4.07-.31-6.13.23-2.04.75-3.92,1.58-5.59.62-.43,1.25-.86,1.86-1.31.67-.12,1.36-.22,2.03-.37,19.17.15,29.21-19.21,38.88-39.31.44-1.92.93-3.79,1.4-5.69,1.75-10.51,5.1-19.36,10.98-26.35,5.98-7.1,11.11-15.48,13.43-26.68,2.58-12.37,8.26-13.99,15.65-9.9l-.08-.03c6.66,3.75,13.29,4.15,19.91-.2l-.02.04c1.71-1.39,3.59-1.82,5.46-1.47,3.08.58,7.27-2.52,8.97,2.87,1.88,5.96-1.51,10.58-4.16,14.23-12.04,16.54-22.45,35.5-35.24,50.9-7.85,13.33-16.93,24.94-24.78,38.27-7.3,12.62-16.29,23.41-20,39.9-2.29,17.96-.31,36.09-1.12,54.07-.12,6.84-.71,13.71.47,20.49.53,1.73.96,3.52,1.38,5.31,1.58,6.92.09,10.94-5.06,11.48-1.22-.22-2.39-.75-3.48-1.59-.96-1.03-1.93-2.08-2.89-3.13-1.14-.74-1.85-2.01-2.13-3.8l.14.28c-4.15-2.76-1.36-9.35-3.41-13.28Z"/>
  <path class="cls-2" d="m241.9,561.02c-.05-2.81.02-5.92,1.84-7.31,2.84-2.18,6.51-2.89,5.47-9.7-.4-2.64.95-3.85,2.32-4.23,4.4-1.21,7.03-6.72,10.87-9.27,3.72-2.47,5.23-7.75,6.58-12.89,1.55-5.95-1.4-6.9-4.35-7.61,1.27-14.81,14.24-24.53,8.58-42.36,0-.68.01-1.36,0-2.04q-.14-16.63-8.63-27.46c-1.93-.02-3.86-.04-5.79-.05-1.36-4.5.38-7.4,2.4-10.17,1.63-1.6,3.43-2.75,5.2-3.94,6.6-17.11,12.04-35.31,21.99-49.14,1.66-2.14,3.51-4.01,4.99-6.44.6-1.19,1.27-2.32,1.93-3.45.95-1.68,1.97-3.3,2.88-5.04.8-1.92,1.5-3.92,2.18-5.96.47-1.49,1.02-2.88,1.61-4.27.56-1.54,1.17-3.01,1.77-4.53.3-.84.61-1.6.91-2.42,9.02-15.12,12.54-1.87,13.92,7.54,1.84,12.56,1.32,25.92-3.91,37.67-2.16,4.86-5.65,9.31-3.74,16.27,1.08,1.16,2.12,2.42,3.25,3.44,2.09,1.9,4.11,2.53,5.8-1.06,2.06-4.38,4.37-8.41,7.57-11.14,2.82-1.26,3.98.34,3.64,4.54-1.04,4.54-2.01,9.13-3.14,13.62-2,7.91-3.49,14.03-11.76,11.14-6.52-2.27-13.63,3.26-17.31,13.6-.94,17-11.65,32.15-4.43,50.66,1.86,5.33,8.3,7.85,4.75,16.51-1.01,6.58-3.79,11.73-6.38,17.03-2.51.43-4.15-.25-2.76-4.72-1.86-5.59-4.9-5.81-8.38-3.93-3.71,2-6.27,6.13-8.77,10.32-4.37,7.32-8.67,14.74-13.06,22.05-4.82,8.03-10.78,13.18-18.06,14.77Z"/>
  <path class="cls-147" d="m206.9,539.54c-1.79,2.22-4.1,3.97-5.29,6.75-6.99,16.38-19.07,22.3-29.57,31.39-4.54,3.93-6.5,2.14-7.97-5.85-.48-2.61-.58-5.38-.84-7.86-3.33-.9-4.55,2.6-6.31,4.67-2.07,2.45-3.94,3.02-6.24.09-6.74-8.58-6.99-8.39-10.13,4.92-.16.66-.27,1.34-.42,2-.9-.65-1.8-1.3-2.69-1.94-2.27-5.82-6.6-8.39-9.59-13.09-5.44-10.8-2.68-26.82-10.71-35.97-.59-1.83-.81-3.76-.74-5.77.45-2.93,1.35-5.6,2.31-8.22,1.91-5.67,4.36-10.87,6.54-16.31,1.22-3.04,8.39-6.28.57-11.07-1.32-.81-.93-5.08.25-7.67,2.11-4.64,23.81-5.54,23.5-1.62-1.6,20.18,10.93,9.6,15.28,16.2.98,2.54,1.25,5.27.95,8.11-.31,1.7-.83,3.28-1.55,4.69-1.03,1.89-2.04,3.83-2.61,6.16-.16,1.53-.35,3.05-.51,4.48-.21,1.27-.07,2.34.43,3.12.38-1.08.67-2.22.89-3.53,2.3-7.86,5.63-12.74,11.94-9.43,4.31,8.98,3.93,17.87.12,27.25,5.78-13.09,15.2-14.36,24.32-14.38,11.52-.02,7.6,13.49,8.07,22.86Z"/>
  <path class="cls-29" d="m509.83,553c-1.73-10.11-4.29-20.2-8.54-28.1-5.77-10.73-4.66-21.34-2.78-32.67.66-3.99,1.75-7.84,2.64-11.75,5.61-4.73,11.42-3.68,17.29-1.38,4.69,6.35,3.38,13.63,2,21.43-1.87,10.55-1.98,21.15,4.39,29.12,3.36,4.21,7.18,7.47,11.78,3.79,3.84-3.08,5.25-8.29,4.5-14.29-1.97-15.84,1.23-26.14,13.03-28.35,3.14-.59,3-7.01,5.96-8.27,9.11-1.39,2.25-16.78,8.41-20.76,1.22-.55,2.47-.73,3.73-.5,6.05,1.95,9.33,11.83,16.03,12,1.22.75,2.2,1.92,2.97,3.47.41,1.81.49,3.65.26,5.53-1.42,8.85-9.98,6.08-11.31,15.07.01.89-.02,1.73-.03,2.63-.1.91-.23,1.76-.35,2.66-.24.87-.49,1.69-.73,2.54-1.65,4.62-4.19,7.03-9.01,6.8,7.55,5.17,17.25,1,20.24,15.13-3.81,9.73-9.83,17.49-11.84,28.8-.74,1.8-1.68,3.35-2.79,4.68v-.05c-3.31,4.24-7.35,4.45-10.18.43-6.75-9.57-12.68-4.27-18.76.74-.91.15-1.72-.13-2.32-.87.1.33.48,1.15,1.17,2.61.41,5.97-1.39,9.88-4.93,12.25-11.1-5.17-21.97-11-30.83-22.72Z"/>
  <path class="cls-19" d="m302.07,353.62c-.01,1.4-.02,2.8-.04,4.2-1.07,1.24-1.82,2.93-2.83,4.25-.99,1.39-1.98,2.77-2.97,4.16-7.07-2.18-12.63-8.48-18.35-14.35-4.08-4.84-7.9-2.32-11.67.98-5.21,5.23-9.25,13.17-15.95,14.81-2.72-2.64-3.06.05-3.22,3.2-4.03,3.7-6.85.85-9.38-3.65-.93-5.67-2.88-9.41-7.37-8.41-1.08-1.13-1.88-2.56-2.39-4.35-.93-4.78-.54-9.2,1.48-13.33,2.68-5.45-2.54-.73-2.12-3.45-1.12-11.38,1.97-20.2,7.71-27.3,3.28-4.05,6.34-8.38,8.88-13.48,7.19-14.39,6.88-15.62-5.38-20.3-1.28-.86-2.24-2.22-2.94-3.99,5.57-5.31,11.95-3.88,17.69-2.62,7.83,1.73,15.53,4.36,23.53,4.26,3.58-.04,6.06,3.12,7.71,7.67-1.3,3.8-9.81,6.98-1.51,11.8,21.51,12.5,25.65,22.02,22,55.64h0c-1.02,1.32-1.88,2.87-2.87,4.23Z"/>
  <path class="cls-109" d="m581.45,265.71c-1.82,0-3.63.02-5.45.03-2.58,2.81-5.65,3.96-8.58,5.46-2.57,3.56-1.73,7.61-.81,11.67,1.81,7.95-1.14,9.82-5.76,10.16-18.67,1.4-27.54,19.41-21.82,44.13-8.03,11.36-12.89,28.52-25.97,30.76-3.13-8.13,2.87-16.08.16-24.16-1.89-8.14-6.37-5.87-10.35-5.49-4.2,1.07-7.63,6.32-12.28,4.97-1.18-.52-2.28-1.34-3.29-2.37-1.55-1.52-3.25-2.48-5.12-2.78-4.32-3.74-14.94,9.18-13.19-10.64,5.8-15.4,13.35-27.67,24.56-35.58,8.31-5.86,15.38-15.51,24.9-17.88,1.81,1.84,3.62,3.73,4.53-1.27,5.79-4.06,11.52-8.38,18.22-7.94,3.1-3,6.31-2.1,9.54-.61,16.43-4.11,32.93-3.87,49.45-1.69,1.85.24,3.67,1.08,5.51,1.65-2.86,4.4-6.32,2.58-9.66,2.03-1.94-.04-3.88-.08-5.81-.12-1,.38-2.01.37-3.01-.01l-1.37-.08-1.38.03c-1.03.45-2.04.39-3.02-.26Z"/>
  <path class="cls-102" d="m235.52,272.63c1.03.52,2.06,1.03,3.09,1.55,4.07,4.96,8.8,9.32,3.09,18.23-10.73,16.75-21.95,32.89-30.21,52.75-2.33,5.6-6.25,8.54-11.07,7.08-1.24-.64-2.29-1.72-3.11-3.25-2.46-3.39,2.43-8.92-1.45-11.68-3.52-2.51-4.58,3.45-6.97,4.99-11.31,1.8-22.65,2.83-33.95,4.37-4.85.66-8.37-.27-11.32-5.72,9.17-11.26,18.16-22.82,25.45-36.82,1.83-3.51,4.28-5.52,6.37-8.33,3.44-4.63,7.28-8.83,9.96-16.64-5.01-.81-9.1-1.47-13.19-2.13,5.06-5.4,10.81-2.71,16.24-2.62,5.19.09,10.36,1.62,15.54,2.52,2.46,13.8-4.7,20.94-9.3,29.95,5.63-11.66,15.98-17.86,17.93-33.83,2.53-4.24,5.91-3.56,9.13-3.1,4.61.66,9.18,1.76,13.78,2.67Z"/>
  <path class="cls-82" d="m696.87,324.01c-.49,1.19-.82,2.63-1.49,3.52-13.13,17.5-21.85,39.96-31.96,60.86-7.09,14.65-14.54,28.94-21.89,43.32-.52,1.02-1.58,1.46-2.39,2.17-6.2-6.31-7.11-12.72-4.92-24.63,4.9-26.61,17.56-45.69,26.78-68.03,3.47-8.4,9.78-10.58,18.46-10.39-12.18-6.64-13.46-17.14-5.4-26.96,4.2-5.11,2.48-12.91,6.4-16.88,6.12-4.69,12.55-8.07,19.39-9.72,3.85,2.18,7.84,3.99,10.64,8.87-.58,8.88-.08,18.23-5.1,25.17h0c-1.48,3.46-3.36,6.32-5.79,8.38v.04c-.94,1.4-1.85,2.82-2.75,4.25Z"/>
  <path class="cls-123" d="m630.56,564.85c-3-20.12,4.04-35.03,12.21-49.03,4.62-7.92,9.88-14.97,13.47-24.16,4.11-10.53,12.11-12.65,18.79-17.17,2.4-1.62,4.58,4.07,6.75,6.67-2.37,12.43-4.75,24.85-7.12,37.27-3.6,5.33-4.28,12.83-6.64,19.08.42,2.66.16,4.92-1.7,6.25-.67.9-1.45,1.56-2.19,1.98-2.07-1.28-1.44,1.28-1.64,2.84-3.57,8.97-8.6,15.41-14.91,19.78-4.55,1.3-9.09,2.6-13.64,3.89-2.94-.69-1.77-5.41-3.37-7.41Z"/>
  <path class="cls-151" d="m68.38,392.45c-.5,1.24-.39,2.36.34,3.34,2.69,6.78.8,14.18,1.32,21.25.03,2.23-.66,3.85-1.97,4.93-2.14,2.21-2.15,5.61-2.44,8.94-.23,2.67-.73,5.82-3.09,5.32-2.07-.44-2.39-3.54-2.6-6.23l-.07-.21c-2.25-2.04-2.71-5.24-2.65-8.78,2.79-2.15,1.61-5.66,1.4-8.85-.14-7.41-1.26-14.5-3.15-21.35-1.82-8.69-.82-18.19-3.63-26.43-.01.16-.55-1.66-.57-1.43-.02.22-.38,1.74-.38,1.9-.4,2.39-1.12,4.32-2.43,5.68-.8-1.64-2.26-3.26-2.29-4.92-.22-16.36-.26-32.73-.15-49.1.01-1.77,1.29-3.51,1.97-5.27,1.23,1.23,1.85,2.93,1.85,5.1-.05,7.33.27,14.72-.13,22.03.62-6.82.07-13.84.28-20.75,1.5-9.95,3.43-19.66,7.12-28.41,2.68-8.96,7.37-14.42,13.73-16.98,1.94-1.04,3.96-.96,5.98-1.01,1.41-.12,2.53.66,3.37,2.35,1.65,2.94,3.85,3.73,6.34,3.86,2.85.15,5.69.62,8.54.96-.26,5.17-2.96,7.19-5.69,7.33-12.06.61-17.98,11.96-22.29,26.4-.58,2.7-1.25,5.36-1.88,8.03-3.07,9.98,1,18.2,3.12,26.92.44,2.03.72,4.08.92,6.18,1.15,13.15-.38,26.14-.87,39.19Z"/>
  <path class="cls-54" d="m63,311.59c1.66-11.34,8.48-17.73,12.14-27.17,1.06-2.73,3.15-2.29,5.02-2.29,5.11,0,10.3.54,14.92-3.73,14.25-2.53,28.56-.04,42.83-.96.35,10.09-5.26,7.69-8.97,9.29-1.36.2-2.75.22-4.11.2-1.31.08-2.64.02-3.94-.04-1.22.06-2.47-.02-3.7-.09-2.78.07-5.64-.72-8.23,1.48-1.45,11.79,3.68,22.36,2.77,33.97-.98,6.61-2.88,13.29.76,19.55.28,1.89-.02,3.55-.87,5.01-2.69,2.66-5.74,3.99-8.81,5.27-1.97.57-3.91.42-5.84-.43-2.49-1.49-4.77-3.37-5.95-7.2,3.84-9.53,3.12-19.63,2.12-30.02-.63-6.61-3.39-5.23-6.15-4.94-3.73-.19-8.66-8.15-9.67,5.74-.77,10.55,2.55,22.78-4.08,31.85-2.94,1.94-5.58,1.03-8.02-1.74-5.04-8.08-6.78-16.89-2.78-26.98,2.53-.3,2.53-.31.56-6.76Z"/>
  <path class="cls-150" d="m304.94,349.39c-.23-4.18.63-9.84-.9-12.28-4.87-7.76-5.39-15.55-3.08-25.01.89-3.63-1.41-6.55-3.73-7.95-7.1-4.3-14.31-7.98-21.56-3.61-2.22-3.58-1.08-6.22-.37-8.55,1.28-4.22-4.18-10.06.94-12.52,2.3-1.11,5.45,1.54,8.21,2.48,9.02,4.54,17.25,10.69,24.31,20.61,3.22,4.52,5.77,8.55,6.95,14.98,3.07,16.71,7.76,32.71,7.49,50.69-.12,7.53-.9,13.52-4.44,18.88-3.29,4.98-6.59,10.05-7.82,17.1-3.61-2.95-2.57-7.09-.81-10.52,5.42-10.59,5.01-23.3,6.24-35.37.57-5.62-.21-11.01-3.07-15.6-2.28-3.65-3.62-3.38-5.77,1.89-.71,1.74-1.72,3.2-2.59,4.79Z"/>
  <path class="cls-25" d="m630.56,564.85c2.15,1.46,2.49,4.7,3.37,7.41-16.25,4.57-32.41,10.29-48.8,13.4-15.2,2.89-30.1-2.11-44.46-9.93,1.21-4.88,2.42-9.76,3.63-14.64l.1-.14c.8-.75,1.69-1.36,2.4-2.26,3.23-4.09,6.04-10.42,9.73-11.83,4.48-1.72,6.55,6.69,9.7,10.62,2.87,3.59,6.1,3.53,9.47,3.08-1.46,3.48-2.64,7.36-4.5,10.3-.99,1.56-4.46.57-2.46,4.78.94,1.96,3.16,2.88,4.93,3.63,2.09.89,3.45-1.73,4.98-3.25,2.12-2.1,4.35-2.88,6.66-1,1.98,1.61,3.58,6.89,5.67,4.89,3.44-3.31,8.44-2.35,10.68-8.33,1.23-3.27,1.99-2.38,4.08-1.11,8.89,5.42,17.45,4.83,24.82-5.61Z"/>
  <path class="cls-32" d="m489.34,433.96c-1.19,2.28-2.71,3.3-4.67,2.62-2.62-.9-5.24-1.78-7.87-2.68-2.58-1.23-3.48-4.43-4.27-7.76-1.45-10.57-8.58-12.49-13.1-18.35-3.87-5.01-9.31-7.71-10.58-16.33,1.22-7.89,2.24-15.87,3.73-23.66,1.22-6.38.89-13.72,4.83-18.61.52.62,1.03,1.25,1.56,1.86,2.69,10.26,5.02,20.74,9.01,29.23-1.94,3.7,2.43,2.29.51,2.27-.95-.01-.91-.57-.31-2.04,1.99-4.94,4.68-9.28,8.14-11.32,5.05-2.97,9.41.31,8.05,8.51-3.32,19.98,1.91,37.79,4.97,56.25Z"/>
  <path class="cls-65" d="m106.43,282.11c3.71-.07,7.42-.13,11.13-.2,1.63,1.85,1.49,4.36,1.21,6.93.45-2.38.21-5.17,1.91-6.79.87.11,1.74.22,2.61.32,1.02,1.1,2.06,1.11,3.13.18,3.93-1.23,8.66,1.44,11.49-5.1,4.8-4.25,9.62-6.33,14.49-.21-2.37.35-4.75.57-7.1,1.09-1.97.44-3.84,1.83-4.06,4.97-1.11,16.11-8.48,26.38-16.19,35.68-4.7,5.67-7.95,11.44-8.48,20.41-.12,1.96-1.14,3.81-1.74,5.71-.96,1.51-1.91,1.56-2.83-.08-1.3-4.25-5.68-2.68-6.53-6.34-1.09-4.67,1.73-8.61,3.01-12.78.19-.61.37-1.23.55-1.84,5.72-14.86-2.03-27.93-2.59-41.95Z"/>
  <path class="cls-106" d="m699.86,277.29c-5.03,6.52-10.05,13.07-17.59,9.01-4.12,2.87-8.39.68-12.6.95-13.86.13-25.5-13.12-39.2-14-1.94-3.85-4.76-4.18-7.68-4.17-6.2,0-12.41-.02-18.61,0-2.88,0-5.75.04-8.13-2.91,3.22-.67,6.44-1.35,9.66-2.03,13.21-1.11,26.41-2.22,39.61-3.33.95-.08,1.96-.6,2.83-.26,15.54,6.16,32.08,4.15,47.34,12.56.44.24.82.68,1.23,1.03,1.09,1.03,2.15,2.11,3.19,3.24l-.03-.08Z"/>
  <path class="cls-161" d="m117.73,522.56c6.58,4.1,10.82,10.8,9.55,21.86-.67,5.86,1.94,10.44,1.69,15.9,0,0-.03,1.91-.02,1.92-.28,1.25-.77,2.3-1.43,3.17,0,0-1.18.83-1.18.83-1.25-1-2.51-2.01-3.76-3.01-.46-.53-.91-1.07-1.37-1.6-7.5-4.81-13.64-12.01-18.08-22.18-2.02-5.01-1.96-10.77-1.34-15.91,1.06-8.77,3.14-19.02,10.36-18.84,7.7.2,2.78,12.37,5.58,17.87Z"/>
  <path class="cls-145" d="m299.31,505.51c-.64-3.07-1.01-6.43-3.64-7.41-2.24-.83-4.11-2.33-4.83-5.86,4.75-5.25,1.88-12.64,2.45-19.05.92-10.4,2.45-20.2,9.34-25.91,3.07-3.22,5.98-6.82,9.88-7.85,3.46-.91,7.35,4.19,5.95,8.43-6.34,19.25-10.48,40.07-19.15,57.64Z"/>
  <path class="cls-107" d="m705.4,311.33c.06-6.39,3.41-12.1,1.12-19.21-1.31-4.04,1.82-5.09,3.98-5.96,4.31,7.24,5.43,15.73,4.8,25.07-.65,9.64-1.06,19.32-1.58,28.98-2.52,5.35.39,12.38-2.53,17.6l-.77,1.22.34,1.59c-1.87,4.1.39,10.17-3.01,13.54l-.02.08c-1.58,3.25.24,10.01-4.7,9.79-1.36-14.84-.88-29.15,4.95-42.24,3.88-8.71,3.62-18.68,2.94-28.38-.4-5.7-3.46-2.47-5.52-2.08Z"/>
  <path class="cls-144" d="m448.86,391.48c7.75,8.01,15.55,15.93,23.24,24.09,2.85,3.02,2.95,6.81.43,10.58-2.7-2.83-5.23-6.17-8.15-8.38-4.26-3.22-8.78-5.61-13.61-1.74-3.52,2.82-5.52-.36-6.54-4.58-1.24-5.13-4.14-9.84-3-15.72.59-3.03,2.18-1.04,3.33-.1,1.94-.34,3.29-2,4.4-4.21l-.1.06Z"/>
  <path class="cls-100" d="m212.62,273.07c5.01,3.56,5.98,6.06,3.44,9.59-8.88,12.36-17.13,25.81-27.68,35.33-.53.48-1.96-.14-2.45-.93-.45-.73-.57-3.14-.2-3.54,8.74-9.37,13.95-22.46,18.25-36.57,2.46-3.29,5.5-3.83,8.64-3.88Z"/>
  <path class="cls-142" d="m117.73,522.56c-.87-1.59-1.93-3.03-2.56-4.8-1.17-3.29.57-9.67-3.61-9.54-3.19.1-3.61,5.76-5.09,9.12-2.97,6.74-3.46,14.33-3.33,22.1-1.9-1.02-2.36-3.5-2.94-5.96-.87-3.64-1.87-7.2-2.81-10.8-1.63-2.37-1.02-6.23-2.67-8.58v-.03c-.94-.95-1.23-1.86-.9-2.74.33-.86.66-1.29.98-1.29.43-.04.86-.07,1.29-.11q5.64-.54,4.3-8.41c.5-9.38,4.24-12.54,10.2-11.47,3.11,1.78,7.24.27,9.17,6,1.57,7.73.63,15.01-1.85,21.99-.06,1.51-.11,3.01-.17,4.52Z"/>
  <path class="cls-127" d="m302.63,447.29c-4.16,12.73-7.68,25.44-4.15,40.09,1.26,5.23-.21,6.61-4.89,6-.93-.12-1.84-.74-2.76-1.13-5.79-20.73-.29-37.8,8.15-53.9.65,3.48.9,7.3,3.65,8.94Z"/>
  <path class="cls-141" d="m174.62,260.37c-10.76,4.32-21.58,1.95-32.38.6-1.29.47-2.58.9-3.88,1.27-2.48-1.35-5.21-2.15-6.33-6.39,9.27-5.64,18.82-6.56,28.59-3.53,4.54,4.46,9.93.19,14.63,3.1,1.18,2.02.98,3.67-.62,4.94Z"/>
  <path class="cls-61" d="m48.75,357.77c-.6-1.34-.54-2.6.19-3.79,1.47-2.66,2.99-2.83,4.55-.17,2.11,12.09,4.56,24.1,4.45,36.77.71,4.62-.64,6.17-3.64,5.29-1.85-6.45-3-13.15-3.26-20.16-2.26-5.57.32-12.47-2.29-17.95Z"/>
  <path class="cls-104" d="m468.99,327.46c.58,3.01.4,6.79,3.85,6.32,4.5-.61,9.03-.84,13.55-1.23,1.01,1.37,1.86,2.98,2.92,4.27-.02,1.36-.03,2.73-.01,4.09-8.61,8.39-17.02,8.03-25.23-1.23-.32-1.12-.63-2.26-.95-3.39,1.08-4.19,3.1-7.05,5.88-8.82Z"/>
  <path class="cls-155" d="m723.16,345.37c1.06-11.28,2.13-22.57,3.19-33.85.87-3.31,1.71-6.68,4.9-4.31.19,14.79-1.76,29.01-5.42,42.76-1.71-.51-1.86-2.97-2.68-4.6Z"/>
  <path class="cls-15" d="m137.05,259.67c1.73.43,3.46.87,5.19,1.3-4.85,5.37-10.63,3.99-16.05,4.25-7.86.38-15.75-.26-23.63-.46-.58-1.9-.16-3.19,1.13-3.95,3.77-.86,7.54-1.71,11.31-2.57,7.32,1.31,14.76-1.07,22.05,1.43Z"/>
  <path class="cls-4" d="m175.72,256.53c-5.04-1.36-10.71,2.15-15.1-4.21,13.49.15,26.97.3,40.46.46.99,2.56.55,4.36-1.33,5.41-8.01-.4-16.13,2.21-24.03-1.65Z"/>
  <path class="cls-48" d="m705.48,434.15c-.02,4.93.1,9.97-2.77,13.57-.64.81-1.68,1.03-2.57,1.28-.3.08-1.02-.64-1-.91.53-6.76-.63-14.02,2.06-20.11,1.04-2.37,3.43-3.02,5.06-.86,1.79,2.36.92,4.88-.72,6.86l-.06.17Z"/>
  <path class="cls-128" d="m647.57,568.37c4.15-9.05,11.29-14.36,14.38-24.74l.14-.22c1.41.12,2.82.24,4.23.36-1.42,4.3-2.94,8.54-4.24,12.91-2.8,9.43-7.74,12.93-14.5,11.69Z"/>
  <path class="cls-21" d="m333.73,387.41c-.53-10.4-1.15-20.8-1.54-31.22-.1-2.76.54-6.16,2.8-6.26,2.13-.09,3.06,3.24,3.22,5.82.67,11.14.76,22.21-4.78,31.37l.29.28Z"/>
  <path class="cls-52" d="m238.93,585.56c-4.21-5.87-9.9-1.13-14.45-4.31-2.48-1.73-3.43-4.24-.91-7.46,1.85,5.11,5.3,4.53,8.32,4.52,4.03-.02,8.07-.89,12.1-1.39,3.04-1.64,3.65.55,3.21,4.39-2.76,1.41-5.52,2.83-8.27,4.24Z"/>
  <path class="cls-31" d="m72.36,273.62c-.82,3.66-3.07,4.41-5.17,5.58-3.48,1.94-6.39,4.92-7.89,10.2-2.59,1.43-3.19-.98-3.51-3.92-.02-2.77-.15-5.57,1.2-7.9.67-.88.85-1.93.54-3.17.74-2.29,1.98-3.32,3.7-3.09,3.72.65,7.75-1.88,11.14,2.3Z"/>
  <path class="cls-66" d="m175.72,256.53c8.61-.21,17.22-.42,25.83-.63,2.08-1.8,4.11-1.83,6.05.44-3.65,6.16-8.52,4.72-13.19,4.59-6.59-.19-13.19-.38-19.79-.57.51-1.19.87-2.46,1.09-3.83Z"/>
  <path class="cls-38" d="m519.14,252.6c-4.71,5.27-10.75,4.21-15.93,7.2-3.26-3.5-8.09,2.81-10.86-3.73,1.44-3.27,3.8-3.32,6.03-3.46,4.55-.28,9.11-.33,13.66-.48,2.45-2.58,4.82-2.5,7.1.47Z"/>
  <path class="cls-99" d="m290.17,517.82c.92,1.57,1.84,3.14,2.76,4.72-2.69,9.7-7.04,17.18-13.55,21.76l-.79-1.49c2.13-10.05,7.31-17.07,11.58-24.98Z"/>
  <path class="cls-48" d="m703.04,384.03c1.57-3.27,3.14-6.53,4.7-9.79,1.05,13.37-3.79,23.62-8.37,34.01-1.37-8.92,3.22-15.89,3.67-24.22Z"/>
  <path class="cls-129" d="m57.34,286.25c.65,1.05,1.3,2.1,1.96,3.15-2.64,8.72-5.28,17.44-7.92,26.15-.79,1.8-1.68,2-2.68.35-.23-1.55-.46-3.1-.69-4.64,2.06-4.86,3.42-10.07,3.72-15.82.38-1.96,1.39-3.38,2.02-5.12.54-.86.88-1.86,1.04-3.01.3-3.27,1.16-3.62,2.57-1.05Z"/>
  <path class="cls-48" d="m725.53,357.8c-1.74,8.54-1.44,18.03-5.54,25.46-2.4-1.88-1.14-6.55-3.09-8.77-.07-5.06,1.97-9.03,3.25-13.4,1.47-2.22,2.54-5.86,5.38-3.3Z"/>
  <path class="cls-5" d="m455.25,450.47c-1.22-3.63-2.68-7.13-3.59-10.92-.71-2.98-1.56-7.42,1.38-8.35,2.39-.75,4.05,2.93,4.71,6.25.5,2.5.32,5.29.44,7.96,1.13,4.34-.14,5.66-2.95,5.07Z"/>
  <path class="cls-34" d="m54.31,395.87c1.97-.64,2.75-3.05,3.64-5.29,3.41,8.31,1.8,17.62,2.45,26.48-1.05,1.69-1.98,1.55-2.79-.4-1.1-6.93-2.2-13.86-3.3-20.79Z"/>
  <path class="cls-16" d="m137.05,259.67c-7.38.55-14.82,3.04-22.05-1.43,5.57-2.34,11.26-2.78,17.02-2.39,1.83.86,4.01.69,5.03,3.82Z"/>
  <path class="cls-133" d="m128.98,560.31c5.61.68,8.8,4.66,8.47,13.41-3.93-1.77-7.98-3.15-11.11-7.49,0,0-.37-1.48-.37-1.48l.71-1.18c1.01-.63,1.75-1.68,2.26-3.09l.03-.17Z"/>
  <path class="cls-53" d="m492.34,256.07c3.64,1.12,7.96-1.95,10.87,3.73-3.79,2.45-7.57,4.89-11.36,7.34-1.28.01-2.21-.78-2.74-2.51,1.08-2.85,2.16-5.71,3.23-8.56Z"/>
  <path class="cls-102" d="m172.22,277c-7.1,6.73-12.18,6.78-19.91.2,6.64-.07,13.27-.13,19.91-.2Z"/>
  <path class="cls-48" d="m690.77,446.37c-.6-9.67,1.93-17.82,5.73-25.35.42,9.58-1.02,18.26-5.73,25.35Z"/>
  <path class="cls-48" d="m713.72,403.41c0,1.36.24,2.82-.03,4.05-1.34,6.13-3.23,8.47-5.33,6.43-2.96-2.87-2.89-6.47-.43-10.07,0,0,1.26.3,1.26.29.97.5,1.68.08,2.15-1.29,0-.02,1.27-.44,1.28-.44s1.11,1.03,1.11,1.03Z"/>
  <path class="cls-35" d="m731.25,307.21c-1.64,1.44-3.27,2.87-4.9,4.31-.39-4.12-.77-8.24-1.16-12.36-1.01-4.45.37-5.38,3.03-4.41,1.06,4.13,3.5,7.54,3.03,12.47Z"/>
  <path class="cls-43" d="m437.62,366.54c.43-2.66.69-5.43,1.38-7.94.27-.98,1.54-1.9,2.33-1.86.59.03,1.52,1.53,1.65,2.55.55,4.34,0,8.36-2.35,11.5-1.76-.26-1.99-2.86-3.01-4.24Z"/>
  <path class="cls-120" d="m72.36,273.62c-4.21-.08-8.42-.16-12.64-.24-.63-1.61-.46-2.94.63-3.95,5.64-.22,11.29-.43,16.94-.65.65.9.84,1.75.56,2.55-.27.77-.52,1.15-.76,1.15-1.58.38-3.15.76-4.73,1.14Z"/>
  <path class="cls-146" d="m77.09,272.48c-.06-1.25.01-2.48.2-3.7,3.07-6.61,8.01-3.73,12.1-5.14.74,2.29.41,4.17-1.01,5.63-2.73,1.44-5.46,2.88-8.2,4.32-1.03-.37-2.07-.74-3.1-1.11Z"/>
  <path class="cls-83" d="m688.27,256.24c-.48,0-.96.07-1.43-.02-2.46-.47-4.7-1.5-5.48-5.51-.08-.41.39-1.34.75-1.6,2.59-1.83,4.51-.34,6.05,2.82.97.9,1.32,1.84,1.03,2.82-.29.99-.6,1.49-.91,1.49Z"/>
  <path class="cls-153" d="m88.39,269.27c.33-1.87.66-3.74,1-5.62.38-1.11.99-1.55,1.83-1.31,3.5,1.34,7.5-1.28,10.63,2.89-4.19,3.52-8.7,4.7-13.46,4.04Z"/>
  <path class="cls-96" d="m522.99,272.73c1.65,1.48,2.78,3.29,1.07,5.92-1.3,2-3.06,3.18-4.53.7-.76-1.27-.75-3.53-1.08-5.34,1.51-.43,3.03-.85,4.54-1.28Z"/>
  <path class="cls-81" d="m725.53,357.8c-1.79,1.1-3.58,2.2-5.38,3.3,1-5.24,2.01-10.49,3.01-15.73.89,1.53,1.79,3.06,2.68,4.6-.1,2.61-.21,5.22-.31,7.84Z"/>
  <path class="cls-40" d="m713.72,403.41c-.86.4-1.72.75-2.6,1.05-1.57-2.6-1.41-5.45-.58-8.4.26-1.43.52-2.85.78-4.28.88-1.36,1.65-2.86,2.3-4.47l.58.25c.98-1.49,1.98-1.52,3.01-.1-1.16,5.32-2.33,10.64-3.49,15.96Z"/>
  <path class="cls-149" d="m455.25,450.47c.98-1.69,1.96-3.37,2.95-5.06,1.79,3.26,3.44,6.63,2.67,11.16-.2,1.19-.77,2.26-1.17,3.38-.72-.71-1.71-1.18-2.11-2.17-.93-2.31-1.57-4.86-2.33-7.31Z"/>
  <path class="cls-60" d="m74.69,496.99c-.76-4.33-1.51-8.66-2.27-12.98.33-1.79.92-3.39,1.75-4.79,1.33-.57,2.32,0,2.91,1.88-.21,1.32-.03,2.52.53,3.6,1.26,2.58,1.09,5.54,1.04,8.46-.47,3.17-1.31,5.51-3.96,3.84Z"/>
  <path class="cls-136" d="m668.02,537.52c0-8.01,1.45-14.94,6.64-19.08.15,8.13-3.06,13.74-6.64,19.08Z"/>
  <path class="cls-158" d="m635.99,248.47c-1.24-.99-2.35-1.88-3.45-2.77,1.22-.64,2.44-1.82,3.65-1.77,1.16.05,2.29,1.37,3.44,2.13-1.16.77-2.32,1.55-3.63,2.41Z"/>
  <path class="cls-48" d="m687.96,463.1c.43-5.78.69-11.63,2.84-16.78.13,5.99,1.85,12.55-2.84,16.78Z"/>
  <path class="cls-64" d="m72.01,437.45c3.21,5.03,1.57,11.68,2.69,17.4-4.78-4.51-3.14-11.15-2.69-17.4Z"/>
  <path class="cls-41" d="m596.16,244.26c3.72-1.41,7.44-1.88,11.17-.1,1.02.68,1.37,1.39,1.05,2.13-.32.76-.64,1.14-.98,1.14-3.83,1.21-7.65,1.27-11.47-.06-.94-.85-1.22-1.59-.84-2.23.35-.59.7-.89,1.06-.89Z"/>
  <path class="cls-75" d="m489.11,264.63c.92.83,1.85,1.65,2.76,2.49-2.28,3.58-4.64,6.89-8.39,6.04l.18.23c.4-4.82,2.68-7.12,5.46-8.77Z"/>
  <path class="cls-151" d="m71.36,421.81c.25,5.31.49,10.63.74,15.94-4.96-3.28-2.89-10.41-4.02-15.78.38-.46.76-.94,1.12-1.44,1.06-.81,1.79-.39,2.16,1.29Z"/>
  <path class="cls-63" d="m331.19,399.98c-1.21-1.51-2.43-3.03-3.64-4.54.94-4.53,3.24-6.82,6.18-8.03,0,0-.29-.28-.29-.28,1.39,5.09,1.17,9.57-2.25,12.85Z"/>
  <path class="cls-98" d="m101.85,265.23c-3.46-1.61-7.41.61-10.63-2.89,4.04-2.39,8.25-1.99,12.46-1.52-.37,1.32-.74,2.63-1.12,3.95l-.72.46Z"/>
  <path class="cls-72" d="m717.21,387.45c-1,.03-2,.07-3.01.1-.04-1.51-.08-3.01-.12-4.52.97-1.05,1.7-2.39,2.23-3.96.2-1.52.39-3.05.59-4.57,2.94,1.47,2.82,5.26,3.09,8.77-.93,1.39-1.85,2.79-2.78,4.18Z"/>
  <path class="cls-85" d="m529.48,247.54c3.91-3.34,7.82-7.23,11.61.28-2.34,3.28-5.27,1.87-7.99,2.16-1.47.02-2.69-.75-3.62-2.44Z"/>
  <path class="cls-108" d="m48.75,357.77c3.7,5.18,2.39,11.73,2.29,17.95-.86-1.73-1.72-3.46-2.58-5.18.1-4.26.19-8.51.29-12.77Z"/>
  <path class="cls-76" d="m728.22,294.74c-1.01,1.47-2.02,2.94-3.03,4.41-.85-2.23-2.02-4.35-2.43-6.74-.22-1.28.88-3.04,1.39-4.59.74.61,1.69.97,2.17,1.87.79,1.5,1.28,3.35,1.9,5.05Z"/>
  <path class="cls-48" d="m711.2,357.82c-.12-6.17-.98-12.57,2.53-17.61.21,6.2,1.71,12.79-2.53,17.61Z"/>
  <path class="cls-114" d="m207.61,256.35c-2.02-.15-4.04-.29-6.06-.44-.18-1.04-.34-2.08-.47-3.13,2.63-.07,5.26-.24,7.89-.08.38.02.71,1.65,1.06,2.54-.81.37-1.62.75-2.42,1.12Z"/>
  <path class="cls-104" d="m457.42,349.2c.51-5.62,2.61-9.75,5.7-12.93.34.61.66,1.23.98,1.86,1.59,7.88-.81,11.61-6,12.45l-.68-1.39Z"/>
  <path class="cls-56" d="m519.14,252.6c-2.37-.16-4.73-.31-7.1-.47,3.38-5.02,7.51-4.63,11.75-3.51,1.02.86,1.31,1.59.9,2.2-.36.53-.75.81-1.16.81-1.46.33-2.93.65-4.39.98Z"/>
  <path class="cls-119" d="m296.22,270.09c1.26.82,2.63,1.4,3.74,2.54.62.64,1.19,2.32,1.04,3.3-.13.82-1.28,1.71-2.04,1.85-2.55.45-4.44-1.49-6.04-4.2.48-2.43,2.06-2.6,3.3-3.49Z"/>
  <path class="cls-103" d="m662.21,243.87c1.23.25,2.91-.13,2.92,2.39,0,.5-2.42,1.33-3.75,1.43-.82.06-2.43-1.28-2.39-1.47.44-2.38,1.93-2.14,3.22-2.35Z"/>
  <path class="cls-62" d="m247.2,581.32c-1.07-1.46-2.14-2.93-3.21-4.39,1.41-2.93,3.69-3.24,5.78-4.15,2.77-2,3.46.31,3.62,3.75-2.01,1.73-3.4,5.2-6.18,4.79Z"/>
  <path class="cls-3" d="m88.68,518.98c.1,1.3.33,2.56.67,3.77,1.03,2.94,1.07,5.75-.54,8.32-3.15-1.07-4.37-4.85-5.59-8.62.92-1.78,1.22-4.27,2.82-5.28,1.12-.14,1.99.46,2.64,1.8Z"/>
  <path class="cls-64" d="m79.81,514.1c-2.12-1.83-2.52-4.84-2.56-8.09.95-2,1.46-4.77,3.67-4.61,1.76,2.04,2.29,4.95,2.65,7.99l-.27,2c-.48,1.25-1.18,2.13-2.08,2.66l-1.4.05Z"/>
  <path class="cls-9" d="m80.93,501.39c-.8,2.25-1.84,4.1-3.67,4.61-.86-3-1.71-6-2.57-9.01,1.03-1.49,2.06-2.98,3.09-4.47,1.12-1.04,1.81-.55,2.14,1.27.34,2.53.67,5.06,1.01,7.59Z"/>
  <path class="cls-91" d="m550.75,264.17c-3.18.2-6.36.41-9.54.61,3.06-4.26,6.22-5.14,9.54-.61Z"/>
  <path class="cls-110" d="m688.27,256.24c-.04-1.44-.08-2.87-.11-4.31,1.77.22,3.56.3,5.3.77.46.13.82,1.43,1.11,2.29.04.12-.62,1.06-.97,1.09-1.77.15-3.54.12-5.31.16Z"/>
  <path class="cls-143" d="m531.62,248.25c3.16-.15,6.31-.29,9.47-.44-2.1,5.35-5.51,4.44-8.83,3.97-.65-.59-.96-1.31-.93-2.16.03-.92.13-1.37.29-1.37Z"/>
  <path class="cls-10" d="m531.62,248.25c.6,1.02.82,2.2.64,3.53-2.91-.05-5.82-.1-8.73-.15.13-.99.21-2,.25-3.01,1.9-.36,3.8-.72,5.7-1.08.68.44,1.4.68,2.14.71Z"/>
  <path class="cls-121" d="m607.4,247.43c-.01-1.09-.04-2.18-.08-3.27,1.85-.04,3.71-.24,5.55,0,.44.05.84,1.5,1.13,2.4.04.12-.69,1.11-1.06,1.11-1.85.03-3.69-.13-5.54-.23Z"/>
  <path class="cls-20" d="m596.16,244.26c-.06,1.04-.13,2.08-.22,3.12-2.8.06-5.6.12-8.41.19-1.11-.83-1.46-1.6-1.06-2.31.38-.68.77-1.02,1.18-1.02,2.84.01,5.67.02,8.51.04Z"/>
  <path class="cls-22" d="m587.65,244.22c-.17,1.1-.21,2.22-.12,3.34-1.42.07-2.86.39-4.25.12-.82-.16-1.57-1.25-2.34-1.92.82-.61,1.61-1.6,2.46-1.74,1.4-.23,2.83.1,4.25.19Z"/>
  <path class="cls-64" d="m68.09,467.82c-1.44-1.93-2.44-4.45-.59-6.44,1.91-2.06,3.16.12,3.82,2.89-1.09,1.16-1.3,4.02-3.22,3.55Z"/>
  <path class="cls-48" d="m696.51,420.92c-.16-4.74.07-9.28,2.86-12.58.41,4.86.95,9.78-2.86,12.58Z"/>
  <path class="cls-138" d="m437.62,366.54c1,1.41,2.01,2.83,3.01,4.24-.45,2.05-.09,5.29-2.45,4.71-.43-.11-.58-3.37-.71-5.2-.09-1.23.09-2.5.15-3.75Z"/>
  <path class="cls-48" d="m707.75,374.16c.13-4.93.54-9.72,3.01-13.54.38,5.18,1.39,10.65-3.01,13.54Z"/>
  <path class="cls-137" d="m447.25,334.34c.39.85,1.17,1.76,1.13,2.59-.1,2.14-1.05,3.32-2.59,2.8-.36-.12-.92-.93-.88-1.32.19-2,.86-3.58,2.35-4.07Z"/>
  <path class="cls-26" d="m253.39,576.52c-1.2-1.25-2.41-2.5-3.62-3.75,1.66-2.57,3.58-4.78,5.41-.81.78,1.69-.29,3.78-1.8,4.56Z"/>
  <path class="cls-1" d="m273.55,548.18c1.22-2.72,2.54-5.24,5.04-5.38l.79,1.49c.03,3.58-.95,6.08-3.45,6.97-.72-.49-1.45-.93-2.2-1.34,0,0-.17-1.74-.17-1.74Z"/>
  <path class="cls-111" d="m86.44,517.91c-.54,2.33-1.43,4.11-3.21,4.55-1.14-2.79-2.28-5.58-3.41-8.36.47.13.95.26,1.42.39.38-1.42,1.09-2.14,2.13-2.18.98.17,1.85.72,2.62,1.64l.11.26c.99,1.06,1.11,2.29.34,3.7Z"/>
  <path class="cls-64" d="m86.36,491.58c3.01,3.39,2.94,8.48,3.41,13.28-4.91-2.34-3.68-8.07-3.41-13.28Z"/>
  <path class="cls-6" d="m74.86,479.57c-.81,1.48-1.63,2.96-2.44,4.44-.51-2.35-1.02-4.7-1.52-7.05-.51-1.84-.46-3.63.17-5.4,1.21-1.23,2.3-.98,3.29.56l-.02-.07c2.06,2.22,1.53,4.83.53,7.51Z"/>
  <path class="cls-130" d="m290.88,272.59c-.86-.46-1.9-.61-2.52-1.44-.89-1.2-2.31-3.66-2.06-4.24,1.26-2.93,2.88-2.38,4.27.2.77,1.13,1.07,2.32.91,3.57-.17,1.28-.36,1.92-.59,1.92Z"/>
  <path class="cls-33" d="m71.67,470.98c-.26,1.99-.52,3.99-.78,5.98-2.43-2.06-2.19-5.88-2.8-9.15,1.07-1.19,2.15-2.37,3.22-3.56.18,1.33.56,2.53,1.14,3.59l.31,1.95-1.1,1.19Z"/>
  <path class="cls-78" d="m290.88,272.59c-.1-1.82-.21-3.65-.32-5.48,1.88.99,3.77,1.98,5.65,2.98-1.1,1.16-2.19,2.33-3.29,3.49-.76.03-1.44-.3-2.04-.99Z"/>
  <path class="cls-151" d="m57.34,286.25c-.89.2-1.74.54-2.57,1.04-.47-3.83-.33-7.36,2.22-9.71.12,2.89.24,5.78.35,8.67Z"/>
  <path class="cls-48" d="m710.54,396.06c.19,2.8.39,5.6.58,8.4l.17-.22c-.98,1.17-1.97,1.25-2.98.09l-.37-.51c.36-2.96.74-5.9,2.61-7.76Z"/>
  <path class="cls-30" d="m57.6,416.66c.94,0,1.87.14,2.79.4,1.16.61,1.75,2.4.87,3.16-1.08.93-2.67.58-4.04.79.13-1.45.25-2.9.38-4.35Z"/>
  <path class="cls-32" d="m478.45,443.01c2.37,1.96,2.83,4.79,1.75,8.31-1.81-2.22-2.43-4.97-1.75-8.31Z"/>
  <path class="cls-64" d="m74.64,454.71c2.53,1.69,3.03,4.9,2.98,8.53-2.75-1.52-3.28-4.71-2.98-8.53Z"/>
  <path class="cls-64" d="m77.55,463.09c2.34,1.58,3.13,4.53,3.29,8.03-1.18.27-2.36.55-3.54.83v.02c.09-2.96.16-5.92.24-8.87Z"/>
  <path class="cls-64" d="m74.86,479.57c-.17-2.5-.35-5.01-.53-7.51,1-.03,1.99-.07,2.99-.1v-.02c-.08,3.05-.16,6.09-.24,9.15-.78-.39-1.52-.91-2.22-1.52Z"/>
  <path class="cls-64" d="m80.86,471.09c2.52,1.7,2.97,4.96,3,8.54-3.27-1.13-3.56-4.52-3-8.54Z"/>
  <path class="cls-64" d="m83.8,479.51c2.48,2.26,2.6,5.67,2.12,9.37-2.57-2.22-2.92-5.51-2.12-9.37Z"/>
  <path class="cls-64" d="m79.92,493.79c-.75-.3-1.46-.73-2.14-1.27-.05-2.61-.11-5.22-.16-7.83,2.25,2.23,2.6,5.49,2.31,9.1Z"/>
  <path class="cls-64" d="m94.71,514.1c2.56,1.74,3.04,4.88,2.67,8.58-2.33-1.89-2.93-4.95-2.67-8.58Z"/>
  <path class="cls-64" d="m88.82,531.08c.18-2.77.35-5.55.53-8.32,2.47,3.14,2.42,5.93-.53,8.32Z"/>
  <path class="cls-50" d="m270.36,552.16c1.06-1.33,2.13-2.65,3.19-3.97.56-.22,1,.03,1.31.74-.51,1.34-.97,2.71-1.39,4.11-.15,2.86-1.56,3.66-3.16,4.16-.78-1.14-1.03-2.26-.76-3.37.27-1.11.54-1.66.81-1.66Z"/>
  <path class="cls-37" d="m270.36,552.16c-.02,1.68-.03,3.35-.05,5.03-.64.51-1.27,1.02-1.91,1.53-.23-1.04-.86-2.49-.6-3.06.63-1.39,1.68-2.37,2.55-3.51Z"/>
  <path class="cls-151" d="m60.36,269.43c-.3,1.28-.51,2.6-.63,3.95-.7.48-1.44.83-2.2,1.04.14-2.65,1.08-4.31,2.83-4.99Z"/>
  <path class="cls-74" d="m483.47,273.17c-.29,1.13-.57,2.26-.86,3.39-.46-.58-.92-1.15-1.38-1.73.8-.47,1.61-.95,2.42-1.42l-.18-.23Z"/>
  <path class="cls-82" d="m699.9,277.37c-1.06-1.08-2.12-2.16-3.19-3.24,1.75-.39,2.78.78,3.19,3.24Z"/>
  <path class="cls-151" d="m53.74,290.31c-.04,2.24-.56,4.08-2.02,5.12.67-1.7,1.34-3.41,2.02-5.12Z"/>
  <path class="cls-48" d="m716.31,379.07c-.06,2.15-.99,3.25-2.23,3.97.75-1.32,1.49-2.64,2.23-3.97Z"/>
  <path class="cls-48" d="m713.62,387.3c.08,2.43-.87,3.72-2.3,4.48.77-1.49,1.53-2.98,2.3-4.48Z"/>
  <path class="cls-32" d="m448.96,391.42c-.65,3.23-2.27,4.26-4.39,4.21,1.06-2.29,2.44-3.9,4.39-4.21Z"/>
  <path class="cls-64" d="m71.67,470.98c.28-1.03.54-2.08.78-3.13.64,1.43,1.27,2.85,1.9,4.28-.88-.43-1.78-.81-2.68-1.14Z"/>
  <path class="cls-64" d="m89.63,504.58c.9.1,1.75.48,2.54,1.13.27.96.54,1.92.82,2.88-.53.68-1.06,1.37-1.6,2.05-1.29-1.58-2.04-3.49-1.75-6.05Z"/>
  <path class="cls-64" d="m85.99,513.95l-1.09-.19-1.1.14c-1.03-.59-1.47-1.38-1.32-2.38.17-1.1.39-1.65.67-1.65l.42-.48c.81,1.52,1.61,3.05,2.42,4.57Z"/>
  <path class="cls-64" d="m94.8,510.04c.08,1.35.05,2.7-.1,4.03-1.11-1.15-2.22-2.3-3.32-3.44l.73-1.21c.88-1.08,1.7-.99,2.46.26l.23.35Z"/>
  <path class="cls-64" d="m86.44,517.91c-.29-1.2-.41-2.43-.34-3.7.86,1.59,1.73,3.18,2.59,4.78-.77-.26-1.52-.62-2.24-1.07Z"/>
  <path class="cls-84" d="m273.46,553.03c.46-1.37.92-2.75,1.39-4.12.54.6.9,1.38,1.07,2.34-.82.59-1.64,1.18-2.46,1.77Z"/>
  <path class="cls-29" d="m504.76,548.74l1.01-.06s.06,1.43.05,1.42c0,0-.99.13-.99.13l-.08-1.49Z"/>
  <path class="cls-147" d="m121.22,561.62l1.08.11s.31,1.51.3,1.5c0,0-1.13.01-1.13.01l-.25-1.62Z"/>
  <path class="cls-28" d="m757.17,273.56c.96-.94,1.77-.77,1.93.64.05.48-.84,1.73-1.23,1.67-.97-.15-1.09-1.32-.4-2.74l-.3.43Z"/>
  <path class="cls-118" d="m172.56,49.1c4.67,2.49,8.39,6.66,10.77,13.17-.35,1.86-1.1,3.22-2.28,4.09-4.12-3.99-8.23-7.98-12.35-11.97.52-2.96,1.8-4.73,3.85-5.29Z"/>
  <path class="cls-101" d="m201.4,82.79c-2.44.49-4.83,1.13-6.09,4.83-2.93-2.77-4.47-7.13-6.04-11.45-.8-1.24-1.01-2.37-.62-3.39.37-.97.71-1.45,1.03-1.45,3.9,3.82,7.81,7.64,11.71,11.47Z"/>
  <path class="cls-46" d="m172.56,49.1c-1.28,1.76-2.57,3.53-3.85,5.29-1.86-1.79-3.73-3.59-5.59-5.38.27-3.92,1.18-6.58,4.36-4.71,1.7,1.6,3.39,3.2,5.08,4.8Z"/>
  <path class="cls-95" d="m167.48,44.3c-1.45,1.57-2.9,3.15-4.35,4.71-2.17-.67-2.93-2.95-2.08-5.53.4-1.2,2.16-2.15,3.22-1.98,1.13.18,2.15,1.81,3.21,2.8Z"/>
  <path class="cls-49" d="m181.06,66.36c.76-1.36,1.52-2.72,2.28-4.09.89.46,1.18,1.35.87,2.66.24,1.38.58,2.7,1.01,3.98-.37.46-.75.91-1.12,1.36-1.62-.29-2.47-1.87-3.03-3.92Z"/>
  <path class="cls-14" d="m189.69,71.32c-.14,1.62-.27,3.23-.41,4.85-2.29-.92-4.35-2.24-5.19-5.89l.74-.79c1.13-.09,2.26.03,3.37.39.85-.3,1.34.17,1.49,1.43Z"/>
  <path class="cls-11" d="m188.2,69.89c-1.13-.13-2.25-.26-3.37-.39-.2-1.52-.41-3.04-.62-4.56,1.91.64,3.28,2.23,3.99,4.95Z"/>
  <path class="cls-68" d="m670.78,281.98c4.22-.79,7.97,1.09,11.49,4.31-.94,6.07-1.93,12.11-2.79,18.2-.32,2.22-.74,3.4-2.57,2.85-5.63-1.69-2.78,6.51-4.78,9.39-1.52,2.2.1,4.18,2.18,5.54,2.87,1.88,5.34,5.06,8.88,8.58-4.63,2.65-8.66,4.84-13.08,6.26-4.84,1.56-8.69,5.83-8.66,14.11.01,3.86-1.53,6.27-2.49,9.36-1.91,6.17-9.52,2.55-9.07,10.83.42,7.88-3.68,10.76-5.93,15.74-2.65,5.85-4.99,11.89-4.81,19.28.03,1.39-.14,2.8-.07,4.18.25,5.03-5.99,2.79-4.6,8.46.93,3.82,2.88,7.08,4.2,10.72.42,1.15.31,2.72.44,4.1-13.87,27.83-27.68,55.72-41.68,83.41-1.91,3.79-4.75,6.57-7.15,9.82-4.48-2.53-7.89-8.14-13.72-7.02-3.31.64-7.31-3.09-8.78-9.12-.3-1.23-.49-2.9-.18-4.02.98-3.45,2.06-.88,3.13.12,4.63,4.33,4.97-4.57,7.88-5.55v-4.23c-.82-.68-1.88-1.09-2.4-2.11-.77-1.51-1.65-3.49-1.57-5.17.11-2.11,1.74-3.87,3.11-3.2,5.37,2.64,9.06-.95,12.38-6.41.69-2.45,2.73-.55,3.61-2.4-1.4.21-2.62-.34-3.61-1.85-2.82-14.12,4.45-22.37,9.81-29.73,4.7-6.46,11.24-4.69,13.88,5.54,2.17-13.78-3.73-24.52-8.23-36.29-4.76-12.44-4.33-12.78,2.97-19.89,1.19.78,2.26,1.84,3.24,3.1,1.66,2.33,3.1,4.97,4.56,7.59.75,1.34,1.66,2.06,2.2.82.42-.97-.25-2.56-.9-3.72-.7-1.49-1.3-2.97-1.91-4.5-1.67-4.27-2.42-8.76-1.86-13.64.26-1.91.68-3.75,1.18-5.54,5.67-13.79-2.35-23.36-4.98-34.6.47-1.85,1.13-3.54,1.95-5.11,1.9-2.77,4.22-4.56,6.67-6.05,1.75-.97,3.58-1.53,5.42-1.9,2.22-.67,4.52-1.06,6.11-3.92,2.3-3.92,4.45-8.55,8.68-4.62.73,1.4.96,2.98.7,4.69-1.32,2.02-1.9-1.36-.97,1.08.54,1.41,2.03.93,3.06,1.52,1.68,1.03,3.48,1.32,5.22,1.9-.13-2.59-2.45-2.59-2.76-5.06,10.89-12.78,13.81-35.48,26.58-45.85Z"/>
  <path class="cls-107" d="m699.62,319.72c1.1-4.02,3.08-6.75,5.79-8.38-.08,5.54-2,8.35-5.79,8.38Z"/>
  <path class="cls-107" d="m696.87,324.01c.91-1.42,1.82-2.84,2.73-4.25-.91,1.42-1.82,2.84-2.73,4.25Z"/>
  <path class="cls-25" d="m575.69,560.61c.93-1.56,1.86-3.12,2.79-4.68-.34,2.31-1.29,3.85-2.79,4.68Z"/>
  <path class="cls-77" d="m238.66,366.34c2.86,1.04,5.76,6.65,8.57-.12l.03-.04c7.15-2.58,11.32-11.73,17.31-16.89,9,5,2.82,14.13,2.77,21.6-.41,1.85-.95,3.64-1.54,5.37-1.52,6.45-1.71,13.27,2.77,16.59,3.54,2.63,5.97-2.82,7.9-6.68,2.54-5.06,5.47-10.34.94-16.46-2.48-3.34-4.73-7.13-5.91-11.72-3.64-14.12,1.56-12.2,7.52-8.61,3.8,2.77,7.56,5.64,11.4,8.27,2.69,1.85,4.66,4.59,5.83,8.58l.09.15c-1.86,2.13-1.26,6-2.76,8.38-8.02,9.87-13.25,23.03-18.92,35.55-1.65,3.64-1.08,9.37-1.72,14.08-.57,4.23-2.92,4.89-5.38,5.03-3.72-3.28.37-13.06-5.63-14.43-1.25-.29-2.37-.95-3.42-1.86-1.47-1.18-2.6-5.2-4.53-2.64-1.77,2.34-2.74,6.61.13,8.69,3.46,2.51,9.26.71,7.78,10.76-1.01,2.71-2.03,5.42-3.04,8.13-2.67,1.73-4.43,4.77-5.75,8.46-1.32,3.68-3.08,6.74-5.62,8.74-2.22.88-4.32,2.69-6.75,1.92-1.12-.35-1.62-1.29-1.47-2.81-.54,2.5,1.36,3.69,1.46,5.89.12,6.98-2.31,10.36-6.94,10.69-1.35-.24-2.58-.91-3.73-1.98-3.13-7.15-2.53-14.64-.36-21.78,4.84-15.92.51-26.48-8.81-34.43-1.17-.99-2.18-2.27-3.04-3.79-.17-.94-.33-1.89-.5-2.83.11-.94.23-1.9.33-2.85,3.56-11.96,15.18-15.21,15.43-30.77,1.09-3.56,1.85-7.78,5.58-6.19Z"/>
  <path class="cls-58" d="m206.9,539.54c-1.68-.5-4.23.34-3.59-4.1.28-1.94,1.71-3.54,1.94-5.47.62-5.33-1.89-8.66-5.47-9.21-6.36-.98-11.8,4.87-18.05,4.63-.97-.04-2.06,2.58-2.98,4.12q-4.62,7.77-12.4,3.87c.85-3,3.07-2.2,4.51-3.54,2.59-2.39,4.7-5.51,3.13-10.24-1.76-5.28-.1-9.43,1.28-13.84-.4-.59-.79-1.19-1.19-1.78.11-.81.21-1.62.31-2.42.64-1.3,1.44-2.38,2.33-3.3,1.81-1.8,2.8-4.41,3.3-7.51.77-2.46,2.1-3.93,3.81-4.8,1.21-.41,2.41-.51,3.64-.41,1.25.2,2.47.6,3.67,1.09,9.47,2.62,14.83-8.36,21.73-14.17,1.03-1.16,2.16-2.05,3.37-2.7,3.4-1.19,6.23.95,9.03,3.33,1.69,1.25,3.38,2.5,5.07,3.79,1.97,2.16,4.74,3.78,2.79,8.65-2.59,13.85-7.44,25.53-14.73,35.3-4.21,5.64-7.69,12.44-11.5,18.71Z"/>
  <path class="cls-86" d="m273.22,467.65c5.29,3.96,6.53,6.33,5.4,11.85-2.51,12.24-6.76,22.87-13.97,30.52l-.05.04c-.98,1.33-1.93,2.72-2.84,4.16l-.04.06c-1,1.32-1.94,2.73-2.88,4.15l-.02.02c-.97,1.38-1.93,2.78-2.88,4.19h-.01c-1.55,2.5-4.25,1.61-5.76,4.22-.96,0-1.91.02-2.87.04-.97,1.33-1.91,1.3-2.83-.11,0-1.35,0-2.7-.02-4.06,1.07-1.26,1.92-2.82,2.84-4.3,8.45-17.14,16.28-34.96,25.92-50.79Z"/>
  <path class="cls-124" d="m233.13,485.53c-1.08-4.06-3.39-5.02-6.03-5.19-1.92-8.03,4.03-8.26,5.81-12.62q5.38-2.48,5.75-12.67c1.77-.53,3.56-.97,5.31-1.62,1.49-.55,2.62,0,3.47,1.86-2.9,11.98-8.34,21.38-14.31,30.24Z"/>
  <path class="cls-2" d="m250.17,526.85c1.25-3.37,3.39-4.12,5.76-4.21-1.22,3.45-3.37,4.17-5.76,4.21Z"/>
  <path class="cls-2" d="m261.75,514.21c.95-1.39,1.89-2.78,2.84-4.16-.95,1.39-1.89,2.77-2.84,4.16Z"/>
  <path class="cls-2" d="m258.84,518.42c.96-1.38,1.92-2.77,2.88-4.15-.96,1.38-1.92,2.77-2.88,4.15Z"/>
  <path class="cls-2" d="m247.29,518.44c-.95,1.43-1.89,2.86-2.84,4.3.95-1.43,1.89-2.86,2.84-4.3Z"/>
  <path class="cls-2" d="m255.94,522.63c.96-1.4,1.92-2.8,2.88-4.19-.96,1.4-1.92,2.79-2.88,4.19Z"/>
  <path class="cls-2" d="m244.47,526.79c.94.05,1.89.08,2.83.11-1,2.93-1.94,2.88-2.83-.11Z"/>
  <path class="cls-132" d="m518.14,480.41c-5.66,2.53-11.33,3.11-16.99.08.66-2.6,1.88-5.2,1.88-7.81.01-14.64,4.99-26.51,9.57-38.64,9.21-10.14,15.36-26.84,29.3-26.94,3.85-.03,6.14-7.86,8-13.52.55-1.79,1.22-3.48,1.93-5.13,4.1-11.12,12.53-17.55,11.34-34.67-.72-10.4,7.86-6.94,12.76-1.63,2.16,7.2-.04,17.09,6.25,21.78.62,1.74.91,3.59.9,5.55-1.19,7.36-5.1,12.05-8.68,16.28-8,9.42-11.15,20.31-7.42,34.77-3.11,19.63-12.64,24.42-24.81,23.17-5.87.38-7.98,6.71-9.44,13.47-2.32,10.76-6.73,15.94-14.59,13.25Z"/>
  <path class="cls-134" d="m458.09,350.59c2.74-3.39,4.98-7.3,6-12.46,8.21,4.72,16.78,2.18,25.2,2.77,5.11.93,7.55-6.3,11.71-8.26,3.38,7.86,10.59,1.69,14.29,8.4,4.11,9.68,3.82,18.29-2.84,25.38,3.04,5.97,3.54,11.76-.56,17.21-5.8,1.45-4.69-10.11-9.49-10.52q-7.18,15.52,6.66,28.45c.24.92.46,1.85.69,2.78-4.84,12.78-12.61,21.23-20.4,29.63-1.01-1.45-1.85-3.39-3.05-4.27-5.17-3.76-5.96-10.3-5.53-17.67.12-2.07.7-4.08.77-6.15.23-6.74,1.11-13.74-4.85-17.04-1.57-.87-.73-4.39.73-4.65,4.65-.85,4.84-5.32,4.45-10.41-.19-2.53-3.9-4.23-4.32-2.16-1.74,8.56-10.69,9.43-8.81,22.79-3.42-6.78-2-13.43-5.29-17.26-6-7-6.45-16.45-5.36-26.55Z"/>
  <path class="cls-152" d="m670.78,281.98c-1.17,2.16-2.06,4.97-3.57,6.34-3.18,2.9-4.13,6.08-3.93,11.89.27,7.8-1.69,14.28-8.08,17.05-3.81,1.66-6.86,7.1-10.25,10.84-1.9,2.37-3.82,2.66-5.79.18-3.95-4.28-4.51-3.87-5.83,4.31-3.01,3.77-6.02.05-9.02.04-1.49,2.12-6.34-4.97-5.3,4.15-1.28,3.36-3.43,4.08-5.8,4.16-5.5,5.39-10.01,2.66-9.93-6.16.13-12.96-.12-26.27,1.9-38.97,1.33-8.36,5.57-8.15,9.78-3.32,2.72,3.03,2.81,8.05,2.92,8.93-.06-.16.69-4.82-1.9-7.33-1.11-7.39,1.8-10.66,6-12.61,2.83-2.74,5.66-5.49,8.49-8.23,7.48-7.43,15.18-3.52,21.45,2.01,6.16,5.44,12.27,6.42,18.86,6.72Z"/>
  <path class="cls-80" d="m552.72,391.65c.7,8.68-2.76,13.38-6.83,18.92-4.56,6.2-8.65,7.36-14,4.16-2-1.2-3.99-.29-4.53,2.82-1.99,11.31-8.15,14.27-14.76,16.49,7.44-17.02,15.55-33.26,24.3-48.93,8.73-15.62,16.34-32.57,24.65-48.7,4.54-8.81,8.54-18.82,16.92-21.15.46.62.93,1.25,1.4,1.87,1.83,5.31.29,10.81.44,16.21-.03,1.79-.24,3.55-.57,5.26-1.75,4.93-.02,10.24-.75,15.3-1.13,1.14-2.2.98-3.22-.3-1.38-.34-2.78-.53-4.13-1.05-2.15-.83-4.44-3.43-6.27.34-1.43,2.96-1.3,6.57-.19,9.73.61,1.75,1.88,2.97,2.73,4.57.84,1.59,1.4,4.5-.17,4.68-8.6.99-8.23,16.2-15.02,19.8h0Z"/>
  <path class="cls-47" d="m538.28,336.65q-9.28-9.04-3.76-22.95c1.43-3.62,3.43-7.31,3.75-11.22.81-9.99,11.92-6.32,10.84-18.32-.02-.17,1.62-1.18,2.31-.89,4.07,1.72,7.36,6.56,12.03,6.52,2.75-4.08-1.39-5.19-1.67-7.94-.28-2.74-1.08-5.36-1.47-8.09-.83-5.78,1.76-7.15,4.85-7.77,3.63,1.93,8.09,2.13,9.04,9.53,1.04,12.53-3.15,21.06-9.8,27.73-2.99,7.95-8.09,13.07-12.19,19.54-2.58,4.07-5.12,7.94-5.42,13.83-2.84,2.84-5.68,3.45-8.52.03Z"/>
  <path class="cls-140" d="m616.11,294.45c-1.41-.27-2.85-.37-4.23-.86-2.1-.74-3.76-.28-4.23,3.17-.28,2.02-.04,4.18-.21,6.25-.73,8.55,2.78,17.75-1.88,25.76-.4.68.32,2.63.36,4q.25,7.03,7.29,8.17c0,1.4,0,2.8,0,4.21-4.36,4.91-9.06,8.33-14.79,7.27-1.33-.32-2.57-1.01-3.73-2.01-1.04-1.22-1.88-2.71-2.55-4.38-.4-1.75-.51-3.57-.37-5.4.4-3.09,1.29-6.19.18-9.36-1.44-2.35-3.36-3.62-5.19-5.1-1.51-1.15-2.95-2.45-4.29-3.99-.87-1.2-1.49-2.62-1.84-4.29.04-1.8.53-3.31,1.38-4.58,2.17-3.03,3.56-6.9,5.26-10.44v-.02c7.59.85,10.58-11.23,17.19-13.11,2.31-6.85,6.82-9.1,11.27-11.28,2.44-1.2,4.58.15,6.25,3-1.96,4.32-3.91,8.64-5.87,12.97Z"/>
  <path class="cls-87" d="m538.28,336.65c2.84,0,5.68-.02,8.52-.03-12.44,18.04-24.24,36.84-33.05,59.25-1.16,2.96-2.66,5.64-4.01,8.45l-.79-.27c-1.37-7.1-10.41-14.58.5-21.05,4.39-4.22,2.37-10.92,2.99-16.6,4.75.08,8.22-1.27,8.71-10.08.47-8.29.99-8.7,7.65-9.66,2.52-.37,3.31-1.98,3.9-4.6.92-4.04,3.15-4.88,5.57-5.42Z"/>
  <path class="cls-17" d="m564.4,303.26c3.93-9.24,7.53-18.68,8.39-29.78.95-1.54,1.91-1.57,2.89-.07q4.12,21.62-11.29,29.85Z"/>
  <path class="cls-39" d="m604.46,289.76c-.98,4.21-4.57,4.58-5.8,7.85-2.8,7.4-6.95,6.51-11.37,5.27,3.48-10.69,9.62-13.9,17.18-13.11Z"/>
  <path class="cls-106" d="m575.69,273.41c-.96.02-1.93.04-2.89.07-2.56-2.48-5.91-3.21-7.64-7.49,3.62-.08,7.23-.17,10.84-.25-.1,2.56-.21,5.12-.31,7.67Z"/>
  <path class="cls-39" d="m587.27,302.89c.04,6.12-1.92,10.31-5.73,12.72-.8-.94-1.08-1.92-.86-2.93.23-1.02.47-1.54.73-1.54,1.21-3.88,3-6.88,5.85-8.25Z"/>
  <path class="cls-106" d="m581.45,265.71c1.01.08,2.02.17,3.03.26-1.08,1.65-2.08,1.53-3.03-.26Z"/>
  <path class="cls-106" d="m587.22,266.02c1,0,2.01,0,3.01,0-1.01,1.6-2.01,1.58-3.01,0Z"/>
  <path class="cls-80" d="m581.41,311.14c.04,1.49.09,2.98.13,4.46v.02c-.94,1.95-1.89,1.96-2.85.03l-.22-.38c.98-1.38,1.96-2.75,2.94-4.12Z"/>
  <path class="cls-59" d="m143.62,340.96c4.35-.09,8.61,6.05,13.25-.75,1.27-1.87,5.34.69,8.12.62,4.19-.11,9.12,2.25,12.37-2.21,5.24-7.19,8.42-.31,12.35,2.28.9-1.46,1.93-1.77,3.12-.75.26.82.51,1.64.76,2.47-.08,1.88-.56,3.49-1.48,4.82-1.98,2.38-4.22,4.03-6.63,5.24-1.84.88-3.73,1.46-5.63,2.02-6.72,7.44-13.79-.77-20.64,1.05-2.32.62-4.94.58-6.23,4.22-.72,2.04-.2,4.19,1.17,5.25,2.65,2.06,4.73-.2,6.24-2.93,3.69-6.67,7.28-5.74,10.74-.02,3.88,6.39,1.13,11.64-1.74,16.68-.92,1.63-2.1,2.87-3.23,4.18-12.06,14.1-11.96,19.67.61,36.56,10.5-15.17,18.86-33.58,31.82-45.01,1.2-.93,2.48-1.42,3.83-1.53,1.39.41,3.59,1.4,3.55,2.67-.5,14.86,8.5,23.74,10.54,36.91-2.24,20.42-17.04,13.67-24.01,23.92-2.56,1.22-5.17,1.25-7.8.87-16.88,6.7-33.82,4.51-50.77.68-3.06-7.41.58-17.89-5.88-24.3-2.5-2.48-2.05-10.87,1.13-12.62,7.04-3.85,6.53-10.8,4.55-18.09-2.54-9.34-7.49,2.2-10.95-1.86-.69-.81-1.61-1.29-2.26-2.36,3.19-8.58,8.7-14.09,13-21.21,3.38-5.58,7.77-9.86,10.1-16.8Z"/>
  <path class="cls-59" d="m111.77,493.17c-5.35-1.78-8.1,4.07-11.38,8.34l-.02-.02c-3.36-6.34.57-14.77-2.81-21.1-.03-16.72-.06-33.45-.07-50.17,0-4.88-.17-9.85,2.79-13.42,1.89,1.6,4.18,5.52,5.89,1.05,4.27-11.18,12.09-14.55,18.09-9.92,5.35,4.13,9.45,14.59,9.21,25.78-.06,2.82.38,5.52.98,8.18.58,12.99-6.85,17.31-12.33,22.84-7.09,7.15-11.16,15.6-10.35,28.43Z"/>
  <path class="cls-8" d="m132.08,442.4c1.84-12.33-4.28-20.74-7.15-30.73-.19-.65-1.97-1.16-2.47-.63-2.72,2.9-5.08,5.91-8.58,1.44-1.26-1.61-2.2,1.35-2.85,3.08-1.84,4.87-3.6,9.81-5.58,14.56-.37.89-1.62,1.53-2.37,1.38-.76-.15-1.92-1.33-2.02-2.26-.44-4.1-.55-8.27-.79-12.41,2.02-11.75,8.16-19.44,13.12-28.22,2.04-3.61,4.73-6.44,7.12-9.63,6.21,2.28,8.77-6.09,12.72-10.68,6.28,10.44,4.64,22.91,6.09,34.02.38,2.94-2.74,5.06-5.42,2.49-1.51-1.45-3.25-3.17-4.44.69-1.01,3.29.52,8.11,3.5,8.51,3.91.52,5.12,3.23,4.16,7.98-1.08,5.32-2.56,10.43-2.18,16.15.76,3.89-.29,5.18-2.86,4.28Z"/>
  <path class="cls-97" d="m97.49,349.39c1.93-.02,3.86-.04,5.78-.06,2.29-2.95,5.08-1.7,7.69-1.97,1.39-.08,2.61.54,3.67,1.86-5.66,9.12-11.19,18.43-17.02,27.3-6.16,9.37-14.37,12.47-22.78,14.34-.95.21-2.18-2.21-3.28-3.41-.6-5.73,3.12-11.05,1.83-16.09-3.52-13.81,1.88-18.9,9.14-22.93,1.04-1.2,2.18-1.99,3.44-2.51,1.33-.3,2.64-.27,3.96.13,2.36,1.91,5.44.33,7.57,3.33Z"/>
  <path class="cls-42" d="m83.15,349.51c-.19,2.76-.02,5.7-.66,8.21-.71,2.81-2.3,5.09-3.61.44-.61-2.18-1.2-3.73-2.8-2.36-.66.57-.95,2.19-1.28,3.41-.16.6-.23,1.58,0,2.03,5.3,10.47,2.78,18.81-3.25,26.22v-.02c-2.66-3.98-.36-9.53-2.03-13.82.98,4.79.64,9.59.07,14.39-.4,1.48-.81,2.96-1.21,4.44-2.58-13.96-3.06-28.23-2.95-42.59,2.46-4.19,6.06-1.59,8.95-3.25,3.32-1.59,6.32-1.07,8.78,2.9Z"/>
  <path class="cls-97" d="m71.36,421.81c-.72-.44-1.44-.87-2.16-1.29-.16-8.24-.32-16.49-.48-24.74,5,7.77,2.5,17.19,2.64,26.02Z"/>
  <path class="cls-142" d="m97.56,480.4c4.59,5.98,2.16,13.98,2.81,21.1-4.76-5.94-2.25-13.96-2.81-21.1Z"/>
  <path class="cls-97" d="m69.58,388.01c-.45-4.56-1.65-9.17.35-13.69,2.92,3.8,1.18,8.74,1.59,13.12-.67.07-1.32.26-1.95.58Z"/>
  <path class="cls-54" d="m114.62,349.23c-.91.05-1.83.07-2.74.07-.94-.92-1.25-1.84-.94-2.76.31-.92.63-1.37.94-1.37,0,0,.1-.15.1-.15.94.06,1.88.09,2.83.08.04,1.39-.03,2.77-.2,4.13Z"/>
  <path class="cls-142" d="m94.57,509.68c-.83.02-1.65-.06-2.46-.26-.1-1.24-.08-2.48.06-3.72,1.37.59,2.19,1.89,2.41,3.98Z"/>
  <path class="cls-55" d="m261.85,429.96c-1.95-6.51-4.34-7.94-8.75-3.41-3.23,3.32-5.48,1.01-5.65-4.33-.13-4.16-.4-8.4,1.57-11.97,1.93-3.49,3.87-6.97,5.84-10.53,2.34,4.45,4.6,8.76,6.86,13.06h-.01c1.47-2.91,3.3-4.58,5.81-3.12,2.68,1.57,2.72,4.99,2.23,8.33-.57,3.87-1.46,7.63-2.21,11.44-1.89.17-3.79.35-5.68.52Z"/>
  <path class="cls-150" d="m293.55,374.77c.04-3.42.47-6.56,2.76-8.38-.06,3.41-.56,6.5-2.76,8.38Z"/>
  <path class="cls-150" d="m302.07,353.62c.96-1.41,1.91-2.82,2.87-4.23-.96,1.41-1.91,2.82-2.87,4.23Z"/>
  <path class="cls-150" d="m299.2,362.08c.94-1.42,1.89-2.83,2.83-4.25-.94,1.42-1.89,2.84-2.83,4.25Z"/>
  <polygon class="cls-18" points="264.59 438.14 265.26 436.38 265.8 437.17 264.59 438.14"/>
  <path class="cls-117" d="m132.08,442.4c.95-1.42,1.9-2.85,2.86-4.28,4.23-.65,9.16.47,12.52-2.39,4.42-3.77,7.87-2.11,11.43.34,4.48,3.08,8.38,4.48,13.18.59,3.45-2.8,7.44-6.42,11.88-2.84,1.41,5.18-.54,7.52-2,8.31,1.85-4.14,8.04-.94,10.52-8.37,5.05-5.25,8.94-13.17,16.68-11.29,2.74.67,5.07-5.22,6.49-9.65.14-.72.28-1.44.42-2.16.68-1.18,1.54-1.89,2.58-2.14.92.02,1.84.04,2.76.05.74,15.39-6.5,26.8-9.33,40.42-.79,1.54-1.78,2.71-2.93,3.58-4.5,2.93-6.41,10.65-6.25,15.25.81,24.36-8.29,18.5-17.45,13.68-1.44-.6-2.92-1.04-4.36-.87.1.01-.52,1.24-.52,1.24,0,0,.96.58,1.04.59,1.87,1.25,3.51,2.62,2.52,6.21-1.03,1.29-2.06,2.59-3.08,3.88-.04,3.71-1.1,6.68-3.02,9.03-.92-.03-1.83-.05-2.75-.06v4.23c-6.93-1.82-9.31,5.27-11.53,12.68-5.56,2.52-3.22-6.54-5.75-8.45,0-1.41,0-2.82,0-4.23,1.02-1.31,1.98-2.72,2.87-4.21.95-.02,1.9-.03,2.86-.04.57-.86,1.15-1.71,1.73-2.55.52-1.1.52-2.21,0-3.32-.54-.89-1.09-1.74-1.67-2.56-.68-.92-1.27-2.12-2.07-2.73-2.68-2.04-4.71,8.1-8.14.57-1.75-3.85-5.36-.24-8.05-.74-1.49-.28-1.74-3.06-1.31-5.17.26-1.26.89-2.37,1.4-3.5.74-1.67,2.43-4.01,2.14-4.81-1.28-3.49-3.12-.64-4.71-.02-.9.35-1.74,1.09-2.59,1.72-3.43,2.55-6.28,1.77-8.88-2.57-1.16-1.94-2.65-.87-3.49,1.07-1.18,2.74-.9,5.45,1.19,6.78,2.11,1.34,4.5,1.75,6.6,3.12,1.03.67.66,3.42-.31,3.25-8.02-1.38-7.03,11.23-11.34,15.69-1.57,1.62-1.42,6.49-3.64,8.5-2.68-6.45-1.21-13.32-.99-20.07.02-.51-.52-1.38-.89-1.5-.36-.12-.83.51-1.25.81-1.9.32-3.89,4.33-5.66-.31-1.29-2.85-2.69-5.6-3.83-8.56-2.47-6.42-2.2-10.37,2.46-13.21,7.47-4.57,11.29-16.08,19.06-19.94,2.2-1.09,2.39-5.59,2.62-9.06Z"/>
  <path class="cls-70" d="m117.43,493.48c.46-3.15.43-7.15,3.9-5.68,1.26.53,3.33,2.49,2.47,3.78-4.48,6.71-2.98,14.89-3.25,22.66-.88,1.27-1.77,2.54-2.65,3.81-.16-8.19-.32-16.38-.47-24.56Z"/>
  <path class="cls-58" d="m158,509.99c1.92,2.82,3.84,5.64,5.75,8.45.47,2.45,1.83,5.23.17,7.31-1.62,2.03-5.03-.24-5.42-3.65-.45-3.97-.36-8.07-.5-12.12Z"/>
  <path class="cls-58" d="m163.77,493.08c.96,0,1.91,0,2.87.02.84,1.56,1.79,2.95,2.86,4.16-1.23,3.45-3.39,4.19-5.78,4.25.02-2.81.03-5.62.05-8.43Z"/>
  <path class="cls-58" d="m160.87,501.56l-2.87,4.21,2.87-4.21Z"/>
  <path class="cls-36" d="m595.94,349.39c5.76-1.42,11.52-2.83,17.27-4.25-.85,7.4-.47,8.67,2.62,7.97,1.84-.42,3.61-1.8,5.44-1.95,1.68-.14,2.79,2.61,1.76,4.09-3.48,5-4.33,9.93-2.35,16.78,1.63,5.66-1.44,8.83-4.58,11.16-.45,6.15.91,11.64,2.88,16.91,2.5,1.96,5.19,3.96,3.88,9.12-.77,3.05-.46,6.89-3.44,9.75-2.71-6.59-8.4-9.82-9.09-18.88-1.37-.43-2.82-1.49-4.08-1.13-1.63.47-1.83,3.22-1.29,4.98,2.13,6.92,4.38,13.77,6.86,20.42.58,1.55,2.18,2.96,3.41,3.16,3.35.53,4.26,3.65,3.09,7.15-2.63,7.86-1.89,16.39-2.56,24.69-3.39-.98-2.65-5.62-4.16-7.99-3.47-5.43-8.61-5.68-12.65-.18-1.39,1.89-.1,3.51.76,5.04,1.05,1.87.96,5.36-.21,5.15-6.94-1.22-6.58,7.58-8.77,12.85-.25.59-.38,1.28-.57,1.92-1.87.14-3.82-.19-5.58.52-3.01,1.2-5.07,1.63-6.44-3.99-.86-3.53-3.46-6.15-5.27-9.18.11-.89.22-1.79.32-2.69.98-3.35,2.49-6.27,3.61-9.51.34-16.68,13.38-12.14,17.35-22.54.84.04,1.52,1.68,1.92,1.68,1.9.01.8-3.79.41-1.03-.39,2.76-2.71-1.83-1.15-.35-.77-1.08-1.08-2.34-1.03-3.81.04-1.35.12-2.03.28-2.05-.07-.73,1.48-1.07.37-1.67-.49-.26-1.51.59-2.39-.15-8.42-2.48-10.22,15.31-18.57,13.05-3.7.31-7.04-.9-9.77-4.78-.05-.69-.16-1.38-.14-2.07.17-6.57-6.38-10.09-4.27-16.63,1.5-4.66,5.1-7.85,7.75-11.71,4.65-6.76,9.3-13.52,13.94-20.28,9.16-5.3,5.45-24.08,14.41-29.58Z"/>
  <path class="cls-92" d="m518.14,480.41c.47-1.14,1.33-2.29,1.32-3.42-.03-2.58-1.38-5.9.95-7.15,2.3-1.24,2.88,2.15,3.7,4.57.35,1.02,1.27,1.61,2.32,2.86,1.07-4.03,2.95-7.85,2.93-11.66-.05-7.56,3.71-10.94,6.54-15.3,1.45-2.24,3.52-.38,5.27.43,6.35,7.06,4.76,14.17,1.03,22.8-2.56,5.92-8.41,11.86-3.47,20.8,3.2-.24,1.54-4.66,2.66-6.69,3.28-5.52,4.01-15.39,9.71-16.25,5.54-.83,12.88-1.14,10.27,13.24-3.59,1.97-1.8,13.12-9.03,10.09-3.45-1.45-6.08,5.84-8.62,9.93-1.52,2.44-.52,4.91.34,7.57,3.31,10.27.82,18.67-4.53,25.65-4.29,5.61-6.95,5.46-12.59.2-2.01-1.88-4.19-3.44-6.05-5.6-3.05-3.53-4.84-7.31-4.7-14.12.18-8.92-1.84-17.61,2.69-25.93,1.24-2.27-.41-7.92-.73-12.02Z"/>
  <path class="cls-67" d="m541.21,497.27c-1.38,3.38-4.05,5.67-5.73,3.13-1.85-2.8-4.78-7.72-2.55-11.82,3.73-6.87,2.01-18.15,8.96-22.33,1.99-1.19,1.08-4.77.55-7.47-.52-2.64-.86-5.36-1.28-8.05,1.55-3.1,3.9-5.11,6.12-3.31,4.97,4.02,7.67-.25,11.09-4.42,3.05-3.72,5.86-7.02,5.88-13.33,3.83.03,7.65.07,11.48.1,7.61,14.71-4.54,22.22-5.72,33.73-.7,1.63-2.06,3.35-1.96,4.87.26,3.94,1.43,7.74,1.75,11.69.51,6.31-1.59,7.78-7.17,5.34-.44-.19-.85-.51-1.27-.77-.22-2.77-.44-5.99-2.29-7.1-2.54-1.52-5.33-2.5-8.06-2.85-.94-.12-3.05,2.8-2.89,3.6,1.84,9.29-4.5,10.07-6.91,14.84.71.92.94,1.84.71,2.76-.24.92-.47,1.38-.71,1.38Z"/>
  <path class="cls-131" d="m570,463.5c-1.49-4.93-4.03-10.5.41-14.38,5.4-4.72,5.64-11.67,5.31-19.35,1.65-1.02,3.77-1.42,4.86-3.19,2.46-3.97,4.37-8.69,6.6-12.98,2.4-4.61,3.52-4.31,5.76,1.1.93,2.23,1.98,4.36,2.98,6.53v8.45c-.65.93-1.52,1.7-1.9,2.83-1.11,3.26,1.64,8.11-2.23,10.43-2.69,1.62-4.19-.92-6.2-2.35-2.22-1.59-3.38.8-3.77,3.76-.52,3.94-.37,8.25-3.18,10.71-6.15-3.4-3.28,6.43-5.75,8.43v.02c-.97,0-1.93-.01-2.9-.02Z"/>
  <path class="cls-36" d="m590.17,476.18c2.27.59,4.67.75,6.76,2,.83.5,1.59,3.7,1.3,5.22-.73,3.8-1.88.65-2.94-.05-1.66-1.11-3.41-1.96-5.12-2.92v-4.25Z"/>
  <path class="cls-23" d="m544.3,561.09c-.89-.13-1.85,0-2.64-.49-.52-.32-.8-1.5-1.19-2.29.76-.12,1.67-.69,2.23-.26.72.55,1.15,1.9,1.7,2.9,0,0-.1.14-.1.14Z"/>
  <path class="cls-45" d="m192.55,340.96c-.95,0-1.9-.03-2.85-.06.17-2.76.2-5.57.61-8.25.1-.66,1.89-1.59,2.15-1.23,2.52,3.5,5.04,2.45,7.64.44.28,1.15.94,2.43.78,3.44-.73,4.74-1.69,9.4-2.56,14.09,5.06.46,9.25-1.25,11.68-8.74,1.6-4.93,3.73-9.5,5.61-14.24.7-1.77,1.04-4.36,2.07-5.23,9.24-7.84,13.17-23.28,21.6-32.19,4.99-5.27.95-6.57-1.52-9.14-.42-.44.53-3.71.85-5.67,5.18-.38,10.43-2.4,15.46,1.25,1.84,9.78-3.82,14.88-6.29,22.01-2.23,6.45-5.41,11.82-9.39,15.59-4.21,3.99-7.74,7.29-6.75,16.13.23,2.1-2.91,5.01-4.5,7.55,1.4,2.52.25,4.06-.96,5.56-.5.71-.76,1.49-.73,2.35.03.91.12,1.37.35,1.4,2.62,3.1,2.2,8.37,4.21,11.81,3.72,9.96-.79,15.65-5.97,16.78-7.01,1.53-1.8-10.56-5.39-13.82-.35-2.84-1.76,3.43-.41,1.44.59-.86.85-.41,1.02,1.3.96,9.7,2.81,20.41-8.47,12.36-2.91-2.07-6.22-3.84-9.58-1.13h0c-6.13,3.97-13.79-3.68-19.54,7.18-2.72,5.13-5.47-1.9-6.43-6.52-2.17-10.53-2.86-20.59,5.8-26.03,1.92,0,3.83-.01,5.75-.02,1.54-2.53,4.27-1.56,5.76-4.23h0c.71-.93.94-1.86.71-2.79-.24-.93-.47-1.39-.71-1.39Z"/>
  <path class="cls-122" d="m201.21,374.77c1.44-1.72,2.81-3.61,4.34-5.13,3.99-3.95,7.08-2.18,9.61,3.38.47,1.04,1.44,1.6,2.38,2.59,1.19-5.82,1.82-11.01-3.3-13.34-1.34-.61-2.75-1.59-2.07-4.11.59-2.2,1.97-2.6,3.57-2.08,1.36.44,2.83.86,4.18.57,3.81-.8,4.01,1.66,2.76,5.84-.38,1.27-.74,2.59-.9,3.94-.25,2.09-.2,4.42,1.28,5.35.6.37,1.79-.67,2.51-1.47,2.8-3.1,4.45-7.17,4.45-12.46,1.3-1.92,2.59-3.86,3.91-5.76,1.15-1.67,2.63-1.9,3.78-.55.99,1.17,2.17,3.15,2.17,4.75-.02,3.35-.77,6.7-1.21,10.05-2.25,1.82-2.84,4.89-2.93,8.34-5.12,10.62-13.57,17.11-17.14,29.65h-.19c-1.64,2.32-1.16,6.12-2.76,8.47v.02c-1.18-2.11-2.5-4.08-3.5-6.36-3.83-8.73-3.79-8.77-11.8-8.91.21-3.83,2.51-5.57,3.83-8.29,3.22-6.63,3.19-6.66-2.95-14.49Z"/>
  <path class="cls-112" d="m264.59,374.76c0-6.24-.17-12.46,1.79-18.38.94-2.84-.2-5.28-1.82-7.09,2.22-5.19,6.32-4.63,9.57-6.45,3.75-2.09,4.43,2.42,4.86,6.54-1.41.11-2.86-.02-4.22.44-.77.26-1.38,1.5-2.07,2.3,3.83,3.21,3.13,10.89,7.47,14.48,5.49,4.54,5.81,10.07,2.56,16.75-2.46,5.05-5.12,9.95-7.98,14.51-3.77,6.02-8.94,4.6-11.56-2.72-2.04-5.68-1.71-11.96-2.06-18.02-.04-.65,2.26-1.6,3.47-2.41.88,1.33,1.74,2.69,2.58,4.08-.82-1.41-1.68-2.77-2.59-4.06Z"/>
  <path class="cls-122" d="m224.26,340.94c.96-1.41,1.92-2.82,2.88-4.23h8.37c.13,6.31-4.83,4.32-5,8.84-.16,4.1-.33,8.2-.5,12.29-2.89-4.22-5.77-8.45-8.66-12.67.32-2.37,1.28-3.79,2.9-4.24Z"/>
  <path class="cls-122" d="m247.23,366.22c-.39-.32-1.13-.76-1.1-.93.22-1.38.66-1.06,1.13.9l-.03.03Z"/>
  <path class="cls-51" d="m525.35,315.86c-1.72,2.35-3.46.31-5.14-.08-2.1-.49-5.38.73-5.51-3.86-.08-3.03,1.17-6.96,2.73-9.07,2.7-3.68,6.09-6.27,9.2-9.3,1.03-1,1.95-.68,2.3,1.04.25,1.23.47,2.89.11,3.87-.63,1.71-1.54,3.74-2.67,4.41-5.94,3.54-1.63,8.52-1.02,12.99Z"/>
  <path class="cls-125" d="m515.28,341.03c-2.26.25-4.53.38-6.78.76-5.51.94-5.51.99-7.5-9.16,4.67.18,9.44-.5,13.96.8,3.35.96,2.19,4.82.33,7.6Z"/>
  <path class="cls-134" d="m489.3,336.81c-.97-1.42-1.95-2.84-2.92-4.27.97,1.42,1.95,2.84,2.92,4.27Z"/>
  <path class="cls-79" d="m661.95,543.63c-1.56-.59-4.22.85-3.47-3.97.09-.56.58-1.29.96-1.41,3.32-1.03,2.19,2.95,2.65,5.16,0,0-.14.22-.14.22Z"/>
  <path class="cls-89" d="m48.7,315.89c.88-.36,1.77-.47,2.68-.35-.16,8.96-.3,17.92-.51,26.88-.01.57-.54,1.11-1.18,2.34-2.7-9.81-2.01-19.33-.99-28.87Z"/>
  <path class="cls-24" d="m63,311.59c1.76,1.49,2.64,3.85,2.61,6.7-.02,1.92-.46,5.47-.8,5.49-2.54.16-1.61-3.51-2.37-5.43-.61-2.4-.58-4.68.56-6.76Z"/>
  <path class="cls-90" d="m74.32,349.32c-2.97.18-5.93.35-8.9.53-.07-1.5-.13-3.01-.2-4.52,3.06-.04,6.13-.08,9.19-.13.37.7.73,1.41,1.1,2.11-.4.67-.8,1.34-1.19,2Z"/>
  <path class="cls-108" d="m53.5,353.8c-1.52.05-3.03.11-4.55.16.51-1.49.86-4.03,1.57-4.27,1.89-.63,2.94,1.21,2.98,4.1Z"/>
  <path class="cls-113" d="m59.87,429.79c.47-1.08.95-2.16,1.42-3.24,1.59,2.87.05,3.1-1.35,3.45l-.07-.21Z"/>
  <path class="cls-12" d="m88.91,349.35c-.98.01-1.96.03-2.94.04-.74-1.1-1.51-2.15-2.32-3.14-1.43-1.28-2.86-2.53-4.15-4.17-.85-1.34-1.47-2.85-1.93-4.53-3.16-15.66,7.32-20.45,11.26-30.44.57-1.78.91-4.77,1.76-5.13,2.51-1.05,4.64,1.1,5.86,4.22.64,1.63.86,4.27.43,6.01-1.06,4.31-.09,8.17.26,12.33.4,4.71,3.77,8.94,1.53,13.9-1.58,3.5-5.52,2.45-6.97,6.71-.72,1.71-1.65,3.11-2.79,4.2Z"/>
  <path class="cls-156" d="m88.83,307.11c.15,6.25.05,13.12-4.47,15.62-7.01,3.87-5.15,10.99-4.16,18.2-1.13,3.78-2.6,6.58-5.81,4.31l.02-.03c-2.81-14.96.08-29.82.5-44.71.04-1.58,1.35-3.57,2.42-4.48,1.85-1.58,3.88-.6,4.76,2.08,1.47,4.44,2.62,8.98,6.73,9.02Z"/>
  <path class="cls-116" d="m106.43,282.11c6.24,6.17,6.04,16.82,7.7,25.8,1.13,6.1-1.54,12-5.11,16.15-1.67-12.49-1.88-25.38-6.87-36.81-1.82-4.15,2.12-4.56,4.28-5.14Z"/>
  <path class="cls-88" d="m111.89,345.17c0,1.38,0,2.75,0,4.13-2.87.01-5.74.02-8.61.04,2.08-4.93,5.47-4.02,8.62-4.17Z"/>
  <path class="cls-88" d="m88.91,349.35c.93-1.4,1.86-2.8,2.79-4.2,2.38.1,4.54.82,5.79,4.25-2.86-.01-5.72-.03-8.58-.04Z"/>
  <path class="cls-116" d="m120.68,282.04c-.54,1.76-1.09,3.52-1.63,5.27-.49-1.81-.99-3.61-1.48-5.41,1.04.05,2.07.09,3.11.14Z"/>
  <path class="cls-116" d="m126.42,282.54c-1.1,1.88-2.14,1.77-3.13-.19,1.04.07,2.09.13,3.13.19Z"/>
  <path class="cls-147" d="m128.95,560.48c-.14,2.01-.62,3.47-2.27,3.09.76-1.03,1.51-2.06,2.27-3.09Z"/>
  <path class="cls-139" d="m705.48,434.15c-.74-.63-1.49-1.26-2.23-1.89,2.19-3.54,1.57,1.01,2.29,1.71l-.06.17Z"/>
  <path class="cls-69" d="m708.3,404.33c.99-.03,1.99-.06,2.98-.09-.94,4.1-1.93,3.91-2.98.09Z"/>
  <path class="cls-44" d="m83.15,509.86c.21,1.35.42,2.69.64,4.03-.86.07-1.72.27-2.56.6-.97-2.97-.22-4.42,1.91-4.63Z"/>
  <path class="cls-159" d="m639.17,328.28c1.93-.06,3.86-.12,5.79-.18,1.81.69,3.68,1.12,5.4,2.14,1.22.73,2.23,2.23,3.45,3.52q-7.96,3.39-14.67-1.28c-.64-.94-.85-1.88-.63-2.81.22-.93.44-1.39.66-1.39Z"/>
  <path class="cls-140" d="m619.01,336.78c-1.43-.12-2.89,0-4.27-.45-.82-.26-1.91-1.22-2.12-2.22-.19-.88.48-2.6,1.1-3.32,3.33-3.88,7.32-2.1,11.07-2.47,1.57,2.8,1.69,5.59-.03,8.37-1.92.03-3.83.06-5.75.09Z"/>
  <path class="cls-93" d="m624.76,336.69c0-2.79.02-5.58.03-8.37,2.85,1.42,5.7,2.85,8.55,4.27-2.04,5.04-5.45,3.93-8.57,4.1Z"/>
  <path class="cls-29" d="m581.68,494.14c.24.54.47,1.07.71,1.6-.8.49-1.58,1.06-2.41,1.45-1.55.73-1.85.04-.62-1.52.61-.78,1.54-1.04,2.32-1.53Z"/>
  <path class="cls-152" d="m639.17,328.28c0,1.4,0,2.8-.03,4.21-1.97-1.43-1.96-2.83.03-4.21Z"/>
  <polygon class="cls-29" points="578.65 501.54 579.85 502.51 579.31 503.3 578.65 501.54"/>
  <path class="cls-124" d="m209.85,450.82c.22-4.09-.5-8.55,2.13-11.71,1.22-1.47,1.8-3.45.09-4.54-3.02-1.94-3.56-2.99-.5-6.41,4.48-5,9.53-9.87,9.82-19.58,4.88.12,7.91,4.43,10.34,9.95,1.52,3.47,1.35,8.17,3.91,11.03,2.39,2.67,1.49,5.26.13,8.84-3.38,8.91-5.51,18.61-5.68,29-.62,4.89-3.18,6.99-5.91,8.84-2.75-1.9-5.31-4.58-8.57-4.27-1.37-1.97.66.99-.7-1.01-.23-.34,0-.01.71.99-.32,2.65-.42,5.52-2.22,7.08-5.46,4.72-11.09,9.02-16.39,14.09-4.22,4.04-5.73.12-7.38-4.26-1.23-1.72-2.89-2.52-4.12-4.24-1.36-2.48-3.54-4.63-1.58-8.44,4.47-.11,7.83,4.57,11.95,5.96,2.16.73,5.02-2.91,4.49-6.1-.55-3.31-1.49-6.49-2.4-9.64-1.3-4.54-.29-6.15,2.96-5.9,2.08.16,2.15-2.14,1.27-4-1.23-2.6-4.26-4.69-1.49-8.24,2-2.56,4.44-.84,6.57.83.83.65,1.71,1.16,2.57,1.74Z"/>
  <path class="cls-117" d="m218.58,404.34c.11-1.39.14-2.8.33-4.16,1.58-10.93,5.36-19.11,12.98-22.64,1.35-.62,2.55-1.88,3.83-2.85.23,6.49-.36,12.23-4.63,16.23-4.34,4.08-8.35,8.91-12.51,13.42Z"/>
  <path class="cls-27" d="m224.18,476.24c1.19-4.06,3.11-7.08,5.91-8.83.94.19,1.88.3,2.83.31.51,6.63-4.06,8.23-5.81,12.62-.98-1.37-1.95-2.73-2.93-4.1Z"/>
  <path class="cls-59" d="m215.63,412.81c.02-3.45.5-6.59,2.76-8.48.07,1.4.15,2.8.25,4.2-1,1.43-2,2.85-3,4.28Z"/>
  <polygon class="cls-124" points="238.66 455.05 237.46 454.08 238 453.28 238.66 455.05"/>
  <path class="cls-57" d="m183.92,476.18c.97,2.83,1.93,5.66,2.9,8.49.76,1.01.97,1.94.63,2.79-.32.8-.62,1.2-.92,1.2h-1.2s-1.2.03-1.2.03c-1.38-3.23-3.57-3.95-5.94-4.13-1.69-2.74-1.61-5.54-.12-8.38,1.95,0,3.9,0,5.85,0Z"/>
  <path class="cls-13" d="m178.02,501.6c.03-3.71.41-7.17,3.02-9.03,2.89,6.93,2.86,7.02-3.02,9.03Z"/>
  <path class="cls-117" d="m186.53,488.66c.14-1.32.24-2.65.29-3.99.94,1.4,1.87,2.79,2.8,4.19-1.03-.07-2.06-.13-3.09-.2Z"/>
  <path class="cls-140" d="m595.94,349.39c-1.24,9.24-6.2,16.88-5.28,27.15.13,1.48-1.31,4.05-2.43,4.81-2.44,1.66-4.48-1.33-6.69-2.38-.01-1.4-.03-2.79-.04-4.19-1.96-5.12-.87-10.42-.45-15.7.99-6.96,2.83-12.74,8.54-13.07,2.28.46,4.46,1.34,6.35,3.37Z"/>
  <path class="cls-36" d="m584.38,362.03c.2,4.82-1.67,8.63-2.89,12.76-9.11-2.17-9.81-3.57-7.48-15.57.38-1.96,1.16-3.75,1.76-5.63.95-.03,1.9-.05,2.85-.06,2.86,1.46,3.57,6.07,5.77,8.49Z"/>
  <path class="cls-80" d="m544.57,422.31c.1.53.38,1.39.27,1.52-.31.36-.79.42-1.21.6-.1-.53-.38-1.4-.27-1.53.31-.36.79-.42,1.21-.6Z"/>
  <path class="cls-73" d="m509.45,383.01c-2.6,2.96-3.19,6.75-1.9,11.06.96,3.22,1.86,6.38,1.4,10-5.73-3.22-11.46-6.44-17.06-9.58-1.21-5.19,2.44-7.31,2.86-11.34.43-4.11.87-8.3,1.84-12.17.76-3.04,1.74-7.09,4.9-5.83,3.04,1.22,7.06.88,7.67,7.41.32,3.44.21,6.96.3,10.45Z"/>
  <path class="cls-32" d="m490.03,370.74c-.77.28-1.55.56-2.32.84.14-1.17.17-2.39.46-3.47.1-.36.87-.63,1.25-.49,1.24.46,1.43,1.6.61,3.12Z"/>
  <path class="cls-140" d="m624.04,315.84c-3.32,2.29-5.44-.37-6.59-2.95-2.48-5.57-1.22-12.24-1.25-18.44-.02-2.69-.58.46,1.33.22.45-.06,1.23.15,1.33.53,1.78,6.87,3.47,13.78,5.18,20.64Z"/>
  <path class="cls-132" d="m584.38,362.03c-3.8-.09-5.64-3.04-5.77-8.49q-5.04-8.22-.06-16.94c.93-.2,2.52-.23,2.65-.91.59-3.2-2.03-1.48-2.59-3.17-1.17-1.38-1.3-3.15-1.06-5.22.45-3.86.76-7.76,1.13-11.65.95-.02,1.9-.03,2.86-.03.95,1.4,1.91,2.79,2.86,4.19.83,1.6,1.99,2.7,2.89,4.19,2.37.11,4.52.85,5.75,4.26,2.09,4.23,1.96,8.45,0,12.68v4.23c-.18,2.57-2.04,2.63-2.89,4.18q-5.36,2.5-5.78,12.68Z"/>
  <path class="cls-36" d="m578.62,332.51c2.13-1.06,4.18-3.11,6.55-1.29,1.58,1.22,3.79,2.08,3.64,5.27-.17,3.79-2.29,3.45-4.04,2.54-2.04-1.07-4.75,1.59-6.22-2.44.02-1.36.04-2.72.06-4.08Z"/>
  <path class="cls-132" d="m552.72,391.65c-1.09-1.11-2.31-2.05-3.22-3.43-.37-.55-.05-2.08-.04-3.16.75.32,1.92.31,2.16,1.01.59,1.69.76,3.7,1.09,5.59h0Z"/>
  <path class="cls-36" d="m593.05,340.94v-12.68c3.15.27,5.13,1.87,3.19,6.95-.81,2.12-2.11,3.83-3.19,5.73Z"/>
  <path class="cls-36" d="m590.16,349.35c.96-1.39,1.93-2.79,2.89-4.18.96,1.41,1.92,2.82,2.88,4.23-1.92-.01-3.85-.03-5.77-.04Z"/>
  <path class="cls-36" d="m587.3,324c-.96-1.4-1.93-2.8-2.89-4.19.96,1.4,1.93,2.8,2.89,4.19Z"/>
  <path class="cls-122" d="m181.04,349.39c-6.7,9.3-4.64,19.62-1.19,31.57,2.33-7.3,6.89-10.03,10.24-14.89,1.8-2.61,3.92-.26,3.96,2.68.1,8.52,4.35,5.19,7.17,5.99-1.1,2.28-1.86,5.33-3.35,6.71-5.5,5.12-10.75,9.83-12.12,20.66-.64,5.08-4.78,6.12-8.28,6.66-3.72.57-4.8,3.76-3.46,8.84,1.48,5.63-1.51,7.34-3.95,9.46-2.5,2.17-4.43,2.07-5.13-2.85-.37-2.59-1.93-2.83-3.28-3.31-4.4-1.57-6.1-6.09-6.57-12.25-.21-2.76-.82-5.46-1.28-8.17-2.16-12.69-2.25-13.01,6.26-17.52,4.35-2.31,7.14-6.88,9.98-11.57,1.57-2.59-.37-8.91-3.06-10.05-.74-.31-2.13-.15-2.39.51-.94,2.39-1.23,5.39-2.31,7.58-2.88,5.84-6.31,6.28-11.34,2-1.77-1.51-3.45-11.82-2.32-14.96.39-1.08,1.13-2.34,1.88-2.63,5.37-2.13,10.73-7.89,16.32-1.5,2.96,3.39,4.77,1.97,7.4-.98,1.65-1.86,4.52-1.41,6.84-2Z"/>
  <path class="cls-154" d="m192.46,433.76c.91.36,1.92.47,2.7,1.16.74.65,1.65,1.84,1.72,2.89.06,1.03-.78,3.09-1.33,3.17-7.11,1.01-13.8,3.41-19.21,10.91-.2.28-1.73-.91-2.26-1.87-.94-1.7-1.17-4.42.03-5.49,3.51-3.14,8.28-3.68,9.83-10.71,2.84-.02,5.68-.04,8.52-.06Z"/>
  <path class="cls-122" d="m192.55,345.15c-1.23,3.44-3.38,4.16-5.76,4.23,1.25-3.38,3.39-4.12,5.76-4.23Z"/>
  <path class="cls-102" d="m192.55,340.96c1.99,1.39,1.98,2.79,0,4.19,0-1.4,0-2.79,0-4.19Z"/>
  <path class="cls-88" d="m74.39,345.23c1.94-1.44,3.87-2.87,5.81-4.31.94.02,1.88.06,2.83.1.98,1.38,1.8,2.99,2.91,4.18.02,1.4.03,2.79.03,4.19-.94.01-1.88.05-2.81.12-2.94-.06-5.89-.12-8.83-.19.07-1.36.09-2.73.07-4.09Z"/>
  <path class="cls-77" d="m261.71,412.79c.67.84,1.49,1.51,1.97,2.54.66,1.44.25,2.63-.9,2.86-.21.04-.65-.93-.74-1.51-.19-1.27-.22-2.59-.31-3.88h-.01Z"/>
  <path class="cls-58" d="m178.07,476.18c.04,2.79.08,5.59.12,8.38-1.08,1.63-2.24,2.06-2.63-.61-.49-3.32.46-6.03,2.52-7.78Z"/>
  <path class="cls-58" d="m173.12,497.09c.36-.35.73-.69,1.09-1.03.33,1.17.72,2.32.98,3.53.5,2.28.03,2.71-1.03.91-.53-.9-.71-2.25-1.04-3.4Z"/>
  <path class="cls-147" d="m169.5,497.27c-.95-1.39-1.91-2.78-2.86-4.16.95,1.39,1.91,2.78,2.86,4.16Z"/>
  <path class="cls-131" d="m604.09,431.09c-.73,2.2-1.15,4.26-1.43,4.21-1.3-.2-2.68-.67-3.8-1.64-1.12-.96-1.96-2.62-2.92-3.98,1.71-.59,3.45-1.74,5.13-1.58,1.12.11,2.17,2.08,3.02,2.99Z"/>
  <path class="cls-29" d="m572.9,463.5c0-1.28-.06-2.57.02-3.84q.41-6.55,5.73-4.59c-1.09,4.01-3.01,6.82-5.75,8.43Z"/>
  <path class="cls-68" d="m611.5,390.9c.38.35.97.58,1.09,1.07.7,2.68.17,5.02-1.18,6.99-.31.45-.72.77-1.08,1.15.04-1.96-.04-3.93.16-5.85.12-1.16.66-2.24,1.01-3.35Z"/>
  <polygon class="cls-68" points="616.11 383.2 614.9 382.23 615.45 381.44 616.11 383.2"/>
  <polygon class="cls-68" points="618.99 400.11 618.32 401.87 617.78 401.08 618.99 400.11"/>
  <polygon class="cls-131" points="595.94 421.24 596.6 419.48 597.14 420.27 595.94 421.24"/>
  <path class="cls-29" d="m541.21,497.27c0-1.38,0-2.76,0-4.14,1.14.57,1.58,1.61,1.11,2.95-.19.54-.73.8-1.11,1.19Z"/>
  <path class="cls-19" d="m224.26,340.94c-.97,1.41-1.93,2.82-2.9,4.24-1.63-1.54-2.94-3.74-1.29-6.15,1.66-2.42,3.15-.47,4.19,1.92Z"/>
  <polygon class="cls-102" points="198.33 349.39 197.66 351.15 197.12 350.36 198.33 349.39"/>
  <path class="cls-77" d="m264.59,374.76c1.78.73,3.74,1,5.26,2.37.89.8,1.67,3.59,1.39,5.01-.3,1.55-1.78,3.12-2.95,3.65-1.38.63-2.81-.78-3.15-2.88-.42-2.64-.38-5.44-.53-8.18v.02Z"/>
  <path class="cls-156" d="m85.93,345.2c-.97-1.39-1.94-2.79-2.91-4.18.97,1.39,1.94,2.78,2.91,4.18Z"/>
  <path class="cls-58" d="m215.62,471.95c-1.8-.26-3.81-.5-4.59-3.19-.82-2.82.24-5.26,2.12-6.16,1.81-.86,2.15,1.49,2.29,3.43.15,1.96.11,3.96.16,5.94v-.02Z"/>
  <polygon class="cls-117" points="209.85 450.82 211.05 451.79 210.51 452.58 209.85 450.82"/>
</svg>